<?xml version="1.0" encoding="UTF-8"?>
<!-- Generator: Adobe Illustrator 16.0.4, SVG Export Plug-In . SVG Version: 6.00 Build 0)  -->
<!DOCTYPE svg PUBLIC "-//W3C//DTD SVG 1.1//EN" "http://www.w3.org/Graphics/SVG/1.1/DTD/svg11.dtd">
<svg version="1.1" id="Layer_2" xmlns="http://www.w3.org/2000/svg" xmlns:xlink="http://www.w3.org/1999/xlink" x="0px" y="0px" width="507.08px" height="175.602px" viewBox="0 0 507.08 175.602" enable-background="new 0 0 507.08 175.602" xml:space="preserve">
<g>
	<g>
		<g>
			<path fill="#60A1D7" d="M93.82,106.622L71.929,74.788l-7.298,7.287c-8.09,8.074-16.456,16.423-24.418,24.472l-0.073,0.074H22.249     l0.04-4.743l40.485-40.675L34.952,20.563l0.037-4.721h19.205l21.899,31.836l7.777-7.767C91.8,31.996,100,23.81,107.801,15.917     l0.073-0.074h17.854l0.003,4.748L85.117,61.264l27.95,40.642l-0.02,4.716H93.82z"/>
			<path fill="#A3A2A2" d="M125.478,16.093l0.003,4.394L84.793,61.234l28.023,40.749l-0.019,4.389H93.952L71.964,74.399     c-10.54,10.532-21.512,21.441-31.93,31.973H22.5l0.037-4.389l40.56-40.749L35.203,20.487l0.034-4.394h18.825l21.995,31.975     c10.536-10.533,21.511-21.441,31.922-31.975H125.478 M125.978,15.593h-0.5h-17.499h-0.209l-0.146,0.148     c-7.801,7.893-16.001,16.079-23.932,23.995c-2.536,2.532-5.062,5.053-7.563,7.553L54.474,15.81l-0.149-0.217h-0.263H35.237     h-0.496l-0.004,0.496l-0.034,4.394l-0.001,0.157l0.088,0.13l27.661,40.405L22.183,101.63l-0.144,0.145l-0.002,0.204L22,106.367     l-0.004,0.504H22.5h17.534h0.208l0.147-0.148c7.962-8.048,16.327-16.397,24.417-24.472c2.375-2.371,4.74-4.731,7.085-7.074     l21.647,31.478l0.149,0.217h0.263h18.847h0.498l0.002-0.498l0.019-4.389l0-0.156l-0.088-0.129L85.441,61.293l40.394-40.453     l0.146-0.146v-0.207l-0.003-4.394L125.978,15.593L125.978,15.593z"/>
		</g>
	</g>
	<g>
		<g>
			<path fill="#9BB2DC" d="M143.285,106.622c-8.542,0-15.492-6.95-15.492-15.493v-6.278h14.975v6.278c0,0.3,0.218,0.518,0.518,0.518     h48.465c0.194,0,0.41-0.222,0.41-0.518V74.901c0-0.296-0.216-0.517-0.41-0.517h-48.465c-8.542,0-15.492-6.95-15.492-15.493V42.66     c0-8.542,6.95-15.493,15.492-15.493h48.465c8.543,0,15.493,6.95,15.493,15.493v6.284H192.16V42.66     c0-0.296-0.216-0.518-0.41-0.518h-48.465c-0.3,0-0.518,0.218-0.518,0.518v16.232c0,0.3,0.218,0.518,0.518,0.518h48.465     c8.543,0,15.493,6.949,15.493,15.491v16.228c0,8.542-6.95,15.493-15.493,15.493H143.285z"/>
			<path fill="#A3A2A2" d="M191.75,27.417c8.335,0,15.243,6.802,15.243,15.243v6.034H192.41V42.66c0-0.435-0.331-0.768-0.66-0.768     h-48.465c-0.439,0-0.768,0.333-0.768,0.768v16.232c0,0.438,0.328,0.768,0.768,0.768h48.465c8.335,0,15.243,6.795,15.243,15.241     v16.228c0,8.443-6.908,15.243-15.243,15.243h-48.465c-8.446,0-15.242-6.799-15.242-15.243v-6.028h14.475v6.028     c0,0.439,0.328,0.768,0.768,0.768h48.465c0.329,0,0.66-0.329,0.66-0.768V74.901c0-0.439-0.331-0.767-0.66-0.767h-48.465     c-8.446,0-15.242-6.802-15.242-15.243V42.66c0-8.441,6.796-15.243,15.242-15.243H191.75 M191.75,26.917h-48.465     c-8.68,0-15.742,7.062-15.742,15.743v16.232c0,8.681,7.062,15.743,15.742,15.743h48.465c0.033,0,0.16,0.085,0.16,0.267v16.228     c0,0.173-0.119,0.267-0.16,0.268h-48.465c-0.163,0-0.268-0.105-0.268-0.268v-6.028v-0.5h-0.5h-14.475h-0.5v0.5v6.028     c0,8.681,7.062,15.743,15.742,15.743h48.465c8.681,0,15.743-7.062,15.743-15.743V74.901c0-8.68-7.062-15.741-15.743-15.741     h-48.465c-0.163,0-0.268-0.105-0.268-0.268V42.66c0-0.16,0.107-0.268,0.268-0.268h48.465c0.041,0.002,0.16,0.099,0.16,0.268     v6.034v0.5h0.5h14.583h0.5v-0.5V42.66C207.493,33.979,200.43,26.917,191.75,26.917L191.75,26.917z"/>
		</g>
	</g>
	<g>
		<g>
			<polygon fill="#9BB2DC" points="221.442,106.622 221.442,27.167 294.536,27.167 294.536,42.142 236.525,42.142 236.525,59.41      283.238,59.41 283.238,74.385 236.525,74.385 236.525,91.647 294.536,91.647 294.536,106.622    "/>
			<path fill="#A3A2A2" d="M294.286,27.417v14.475h-58.011V59.66h46.713v14.475h-46.713v17.762h58.011v14.475h-72.594V27.417     H294.286 M294.786,26.917h-0.5h-72.594h-0.5v0.5v78.954v0.5h0.5h72.594h0.5v-0.5V91.897v-0.5h-0.5h-57.511V74.635h46.213h0.5     v-0.5V59.66v-0.5h-0.5h-46.213V42.392h57.511h0.5v-0.5V27.417V26.917L294.786,26.917z"/>
		</g>
	</g>
	<g>
		<g>
			<path fill="#9BB2DC" d="M308.182,106.622V27.167h63.85c8.602,0,15.6,6.95,15.6,15.493v48.469c0,8.542-6.998,15.493-15.6,15.493     H308.182z M323.674,42.142c-0.299,0-0.516,0.218-0.516,0.518v48.469c0,0.3,0.217,0.518,0.516,0.518h48.357     c0.3,0,0.518-0.218,0.518-0.518V42.66c0-0.3-0.218-0.518-0.518-0.518H323.674z"/>
			<path fill="#A3A2A2" d="M372.031,27.417c8.443,0,15.35,6.802,15.35,15.243v48.469c0,8.443-6.906,15.243-15.35,15.243h-63.6     V27.417H372.031 M323.674,91.897h48.357c0.438,0,0.768-0.329,0.768-0.768V42.66c0-0.435-0.33-0.768-0.768-0.768h-48.357     c-0.438,0-0.766,0.333-0.766,0.768v48.469C322.908,91.568,323.236,91.897,323.674,91.897 M372.031,26.917h-63.6h-0.5v0.5v78.954     v0.5h0.5h63.6c8.739,0,15.85-7.062,15.85-15.743V42.66C387.881,33.979,380.771,26.917,372.031,26.917L372.031,26.917z      M323.674,91.397c-0.161,0-0.266-0.105-0.266-0.268V42.66c0-0.16,0.106-0.268,0.266-0.268h48.357c0.16,0,0.268,0.108,0.268,0.268     v48.469c0,0.163-0.105,0.268-0.268,0.268H323.674L323.674,91.397z"/>
		</g>
	</g>
	<g>
		<g>
			<polygon fill="#9BB2DC" points="402.377,106.622 402.377,27.167 475.467,27.167 475.467,42.142 417.463,42.142 417.463,59.41      464.17,59.41 464.17,74.385 417.463,74.385 417.463,91.647 475.467,91.647 475.467,106.622    "/>
			<path fill="#A3A2A2" d="M475.217,27.417v14.475h-58.004V59.66h46.707v14.475h-46.707v17.762h58.004v14.475h-72.59V27.417H475.217      M475.717,26.917h-0.5h-72.59h-0.5v0.5v78.954v0.5h0.5h72.59h0.5v-0.5V91.897v-0.5h-0.5h-57.504V74.635h46.207h0.5v-0.5V59.66     v-0.5h-0.5h-46.207V42.392h57.504h0.5v-0.5V27.417V26.917L475.717,26.917z"/>
		</g>
	</g>
	<g>
		<g>
			<path fill="#9BB2DC" d="M133.292,152.355c-2.231,0-3.722-0.406-4.56-1.241c-0.836-0.835-1.243-2.339-1.243-4.598v-18.298h4.439     v20.339h16.724v-20.339h4.439v18.298c0,2.255-0.399,3.759-1.219,4.596c-0.823,0.837-2.307,1.243-4.538,1.243H133.292z"/>
			<path fill="#A3A2A2" d="M152.841,128.468v18.048c0,2.169-0.384,3.642-1.147,4.421c-0.766,0.778-2.219,1.168-4.359,1.168h-14.043     c-2.142,0-3.603-0.39-4.383-1.168c-0.78-0.779-1.17-2.252-1.17-4.421v-18.048h3.939v20.339h17.224v-20.339H152.841      M153.341,127.968h-0.5h-3.939h-0.5v0.5v19.839h-16.224v-19.839v-0.5h-0.5h-3.939h-0.5v0.5v18.048     c0,2.328,0.431,3.89,1.316,4.775c0.887,0.884,2.436,1.314,4.736,1.314h14.043c2.301,0,3.844-0.431,4.716-1.317     c0.869-0.887,1.291-2.447,1.291-4.771v-18.048V127.968L153.341,127.968z"/>
		</g>
		<g>
			<path fill="#9BB2DC" d="M169.652,152.355c-2.227,0-3.716-0.406-4.551-1.241c-0.835-0.835-1.241-2.339-1.241-4.598v-0.838     l4.164-0.99v3.869h17.09v-6.601h-14.591c-2.197,0-3.671-0.406-4.506-1.241c-0.835-0.834-1.241-2.338-1.241-4.598v-2.061     c0-2.291,0.407-3.802,1.243-4.622c0.834-0.819,2.308-1.217,4.504-1.217h12.597c2.096,0,3.55,0.375,4.446,1.145     c0.894,0.769,1.347,2.194,1.347,4.236v0.693l-3.89,1.104v-3.517h-16.22v6.142h14.637c2.229,0,3.712,0.415,4.533,1.268     c0.817,0.851,1.214,2.346,1.214,4.571v2.656c0,2.256-0.398,3.76-1.216,4.596c-0.821,0.836-2.303,1.243-4.531,1.243H169.652z"/>
			<path fill="#A3A2A2" d="M183.12,128.468c2.016,0,3.442,0.361,4.283,1.084c0.84,0.723,1.26,2.071,1.26,4.047v0.504l-3.39,0.962     v-3.436h-16.72v6.642h14.887c2.138,0,3.589,0.397,4.353,1.191c0.763,0.794,1.145,2.26,1.145,4.397v2.656     c0,2.169-0.382,3.642-1.145,4.421c-0.764,0.778-2.215,1.168-4.353,1.168h-13.788c-2.138,0-3.596-0.39-4.374-1.168     c-0.779-0.779-1.168-2.252-1.168-4.421v-0.641l3.664-0.871v3.803h17.59v-7.101h-14.841c-2.107,0-3.551-0.39-4.329-1.168     c-0.779-0.778-1.168-2.252-1.168-4.421v-2.061c0-2.199,0.389-3.68,1.168-4.443c0.778-0.764,2.222-1.146,4.329-1.146H183.12      M183.12,127.968h-12.597c-2.265,0-3.795,0.421-4.679,1.289c-0.887,0.869-1.318,2.439-1.318,4.8v2.061     c0,2.33,0.43,3.891,1.314,4.775s2.416,1.314,4.683,1.314h14.341v6.101h-16.59v-3.303v-0.633l-0.616,0.146l-3.664,0.871     l-0.384,0.091v0.395v0.641c0,2.328,0.43,3.89,1.314,4.774s2.431,1.314,4.728,1.314h13.788c2.299,0,3.839-0.431,4.709-1.318     c0.867-0.885,1.288-2.446,1.288-4.771v-2.656c0-2.292-0.42-3.844-1.284-4.744c-0.871-0.905-2.412-1.345-4.713-1.345h-14.387     v-5.642h15.72v2.936v0.662l0.637-0.181l3.39-0.962l0.363-0.103v-0.378v-0.504c0-2.148-0.469-3.596-1.434-4.426     C186.786,128.362,185.278,127.968,183.12,127.968L183.12,127.968z"/>
		</g>
		<g>
			<polygon fill="#9BB2DC" points="200.643,152.355 200.643,128.218 223.909,128.218 223.909,131.879 205.083,131.879      205.083,137.975 216.58,137.975 216.58,141.59 205.083,141.59 205.083,148.603 224.092,148.603 224.092,152.355    "/>
			<path fill="#A3A2A2" d="M223.659,128.468v3.161h-18.826v6.596h11.497v3.115h-11.497v7.513h19.01v3.252h-22.949v-23.637H223.659      M224.159,127.968h-0.5h-22.766h-0.5v0.5v23.637v0.5h0.5h22.949h0.5v-0.5v-3.252v-0.5h-0.5h-18.51v-6.513h10.997h0.5v-0.5v-3.115     v-0.5h-0.5h-10.997v-5.596h18.326h0.5v-0.5v-3.161V127.968L224.159,127.968z"/>
		</g>
		<g>
			<path fill="#9BB2DC" d="M253.625,152.355l-9.608-9.207h-6.594v9.207h-4.439v-24.137h19.27c1.792,0,3.124,0.384,3.961,1.141     c0.844,0.764,1.272,2.005,1.272,3.69v5.268c0,1.685-0.428,2.927-1.272,3.689c-0.837,0.757-2.169,1.142-3.961,1.142h-2.795     l10.811,9.207H253.625z M250.731,139.579c0.879,0,1.494-0.148,1.827-0.441c0.324-0.285,0.488-0.87,0.488-1.736v-3.436     c0-0.839-0.166-1.417-0.493-1.717c-0.333-0.306-0.946-0.46-1.823-0.46h-13.309v7.791H250.731z"/>
			<path fill="#A3A2A2" d="M252.252,128.468c1.736,0,3.001,0.359,3.794,1.076c0.793,0.718,1.189,1.887,1.189,3.505v5.268     c0,1.619-0.396,2.787-1.189,3.504c-0.793,0.718-2.058,1.077-3.794,1.077h-3.475l10.811,9.207h-5.863l-9.608-9.207h-6.944v9.207     h-3.939v-23.637H252.252 M237.172,139.829h13.559c0.946,0,1.61-0.168,1.992-0.504s0.573-0.978,0.573-1.924v-3.436     c0-0.916-0.191-1.55-0.573-1.901c-0.382-0.351-1.046-0.526-1.992-0.526h-13.559V139.829 M252.252,127.968h-19.02h-0.5v0.5v23.637     v0.5h0.5h3.939h0.5v-0.5v-8.707h6.244l9.463,9.068l0.145,0.139h0.201h5.863h1.358l-1.034-0.881l-9.776-8.326h2.116     c1.855,0,3.245-0.406,4.129-1.207c0.898-0.812,1.354-2.116,1.354-3.875v-5.268c0-1.758-0.456-3.062-1.354-3.875     C255.497,128.374,254.107,127.968,252.252,127.968L252.252,127.968z M237.672,132.038h13.059c1.012,0,1.458,0.214,1.654,0.395     c0.269,0.248,0.412,0.778,0.412,1.533v3.436c0,0.986-0.219,1.386-0.403,1.548c-0.197,0.173-0.645,0.379-1.662,0.379h-13.059     V132.038L237.672,132.038z"/>
		</g>
		<g>
			<path fill="#9BB2DC" d="M285.02,152.355v-24.137h19.27c1.792,0,3.125,0.384,3.962,1.141c0.844,0.764,1.271,2.005,1.271,3.69     v5.268c0,1.685-0.428,2.927-1.271,3.689c-0.835,0.757-2.167,1.142-3.96,1.142h-14.832v9.207H285.02z M302.768,139.487     c0.877,0,1.491-0.154,1.824-0.458c0.326-0.299,0.492-0.888,0.492-1.752v-3.279c0-0.861-0.172-1.45-0.511-1.749     c-0.348-0.306-0.956-0.461-1.804-0.461h-13.309v7.699H302.768z"/>
			<path fill="#A3A2A2" d="M304.29,128.468c1.736,0,3.001,0.359,3.794,1.076c0.793,0.718,1.189,1.887,1.189,3.505v5.268     c0,1.619-0.396,2.787-1.189,3.504c-0.791,0.718-2.056,1.077-3.792,1.077h-15.082v9.207h-3.939v-23.637H304.29 M289.209,139.737     h13.559c0.946,0,1.61-0.175,1.992-0.523c0.382-0.35,0.573-0.994,0.573-1.937v-3.279c0-0.941-0.199-1.587-0.596-1.937     c-0.397-0.349-1.054-0.523-1.97-0.523h-13.559V139.737 M304.29,127.968h-19.02h-0.5v0.5v23.637v0.5h0.5h3.939h0.5v-0.5v-8.707     h14.582c1.857,0,3.246-0.406,4.128-1.207c0.897-0.812,1.354-2.115,1.354-3.874v-5.268c0-1.758-0.455-3.062-1.354-3.875     C307.534,128.374,306.145,127.968,304.29,127.968L304.29,127.968z M289.709,132.038h13.059c0.775,0,1.342,0.138,1.64,0.399     c0.278,0.245,0.425,0.785,0.425,1.561v3.279c0,0.779-0.142,1.322-0.411,1.568c-0.196,0.179-0.643,0.392-1.655,0.392h-13.059     V132.038L289.709,132.038z"/>
		</g>
		<g>
			<path fill="#9BB2DC" d="M324.215,152.355c-2.229,0-3.721-0.406-4.56-1.241c-0.837-0.837-1.243-2.341-1.243-4.598v-12.459     c0-2.257,0.406-3.761,1.243-4.598c0.839-0.835,2.33-1.241,4.56-1.241h16.381c2.23,0,3.715,0.406,4.537,1.243     c0.82,0.836,1.219,2.34,1.219,4.596v12.459c0,2.256-0.398,3.76-1.218,4.596c-0.823,0.837-2.308,1.243-4.538,1.243H324.215z      M341.912,148.557v-16.678h-19.061v16.678H341.912z"/>
			<path fill="#A3A2A2" d="M340.596,128.468c2.141,0,3.594,0.39,4.359,1.168c0.764,0.779,1.146,2.253,1.146,4.421v12.459     c0,2.169-0.383,3.642-1.146,4.421c-0.766,0.778-2.219,1.168-4.359,1.168h-16.381c-2.141,0-3.602-0.39-4.383-1.168     c-0.779-0.779-1.17-2.252-1.17-4.421v-12.459c0-2.168,0.391-3.642,1.17-4.421c0.781-0.778,2.242-1.168,4.383-1.168H340.596      M322.602,148.807h19.561v-17.178h-19.561V148.807 M340.596,127.968h-16.381c-2.299,0-3.849,0.43-4.735,1.314     c-0.887,0.886-1.317,2.448-1.317,4.775v12.459c0,2.327,0.431,3.889,1.316,4.774c0.888,0.885,2.438,1.314,4.736,1.314h16.381     c2.302,0,3.844-0.431,4.716-1.317c0.868-0.886,1.29-2.447,1.29-4.771v-12.459c0-2.325-0.422-3.885-1.289-4.771     C344.439,128.399,342.897,127.968,340.596,127.968L340.596,127.968z M323.102,132.129h18.561v16.178h-18.561V132.129     L323.102,132.129z"/>
		</g>
		<g>
			<path fill="#9BB2DC" d="M378.448,152.355l-9.607-9.207h-6.595v9.207h-4.439v-24.137h19.27c1.792,0,3.125,0.384,3.963,1.141     c0.844,0.764,1.271,2.005,1.271,3.69v5.268c0,1.685-0.428,2.927-1.271,3.689c-0.837,0.757-2.171,1.142-3.963,1.142h-2.796     l10.811,9.207H378.448z M375.555,139.579c0.88,0,1.495-0.148,1.827-0.441c0.324-0.285,0.489-0.869,0.489-1.736v-3.436     c0-0.839-0.166-1.417-0.493-1.717c-0.332-0.306-0.945-0.46-1.823-0.46h-13.309v7.791H375.555z"/>
			<path fill="#A3A2A2" d="M377.076,128.468c1.736,0,3.002,0.359,3.795,1.076c0.793,0.718,1.189,1.887,1.189,3.505v5.268     c0,1.619-0.396,2.787-1.189,3.504c-0.793,0.718-2.059,1.077-3.795,1.077h-3.475l10.811,9.207h-5.863l-9.607-9.207h-6.945v9.207     h-3.939v-23.637H377.076 M361.996,139.829h13.559c0.947,0,1.611-0.168,1.992-0.504c0.383-0.336,0.574-0.978,0.574-1.924v-3.436     c0-0.916-0.191-1.55-0.574-1.901c-0.381-0.351-1.045-0.526-1.992-0.526h-13.559V139.829 M377.076,127.968h-19.02h-0.5v0.5v23.637     v0.5h0.5h3.939h0.5v-0.5v-8.707h6.244l9.463,9.068l0.145,0.139h0.201h5.863h1.358l-1.034-0.881l-9.776-8.326h2.116     c1.856,0,3.246-0.406,4.131-1.207c0.897-0.812,1.354-2.116,1.354-3.875v-5.268c0-1.758-0.455-3.062-1.354-3.875     C380.321,128.374,378.932,127.968,377.076,127.968L377.076,127.968z M362.496,132.038h13.059c1.013,0,1.458,0.214,1.653,0.394     c0.271,0.249,0.413,0.778,0.413,1.534v3.436c0,0.986-0.22,1.386-0.404,1.548c-0.196,0.174-0.644,0.38-1.662,0.38h-13.059V132.038     L362.496,132.038z"/>
		</g>
		<g>
			<polygon fill="#9BB2DC" points="397.934,152.355 397.934,131.924 387.123,131.924 387.123,128.218 413.23,128.218      413.23,131.924 402.373,131.924 402.373,152.355    "/>
			<path fill="#A3A2A2" d="M412.98,128.468v3.206h-10.857v20.431h-3.939v-20.431h-10.811v-3.206H412.98 M413.48,127.968h-0.5     h-25.607h-0.5v0.5v3.206v0.5h0.5h10.311v19.931v0.5h0.5h3.939h0.5v-0.5v-19.931h10.357h0.5v-0.5v-3.206V127.968L413.48,127.968z"/>
		</g>
		<g>
			<path fill="#9BB2DC" d="M440.771,152.355l-3.023-5.817h-15.684l-3.023,5.817h-4.466l13.191-24.137h4.509l13.424,24.137H440.771z      M435.883,143.014l-5.953-11.307l-5.953,11.307H435.883z"/>
			<path fill="#A3A2A2" d="M432.127,128.468l13.146,23.637h-4.352l-3.023-5.817h-15.986l-3.023,5.817h-3.893l12.918-23.637H432.127      M423.562,143.264h12.734l-6.367-12.094L423.562,143.264 M432.421,127.968h-0.294h-4.213h-0.297l-0.142,0.26l-12.918,23.637     l-0.404,0.74h0.843h3.893h0.304l0.14-0.27l2.884-5.548h15.379l2.884,5.548l0.14,0.27h0.304h4.352h0.851l-0.414-0.743     l-13.146-23.637L432.421,127.968L432.421,127.968z M424.391,142.764l5.539-10.521l5.539,10.521H424.391L424.391,142.764z"/>
		</g>
		<g>
			<polygon fill="#9BB2DC" points="452.674,152.355 452.674,128.218 457.113,128.218 457.113,148.557 475.023,148.557      475.023,152.355    "/>
			<path fill="#A3A2A2" d="M456.863,128.468v20.339h17.91v3.298h-21.85v-23.637H456.863 M457.363,127.968h-0.5h-3.939h-0.5v0.5     v23.637v0.5h0.5h21.85h0.5v-0.5v-3.298v-0.5h-0.5h-17.41v-19.839V127.968L457.363,127.968z"/>
		</g>
	</g>
</g>
</svg>