<svg id="Layer_1" data-name="Layer 1" xmlns="http://www.w3.org/2000/svg" viewBox="0 0 85 85"><defs><style>.cls-1{fill:#262626;}</style></defs><path class="cls-1" d="M42.5,0A42.5,42.5,0,1,0,85,42.5,42.5,42.5,0,0,0,42.5,0Zm-14,19a6.08,6.08,0,0,1,5.59-5.64c3.2-.2,6.13,1.88,6.45,4.94a68.46,68.46,0,0,1,.05,7.16c-2.37,0-4.75.18-7.08,0A5.93,5.93,0,0,1,28.51,19ZM25.33,51.52a5.82,5.82,0,0,1-6.46,4.68A6.07,6.07,0,0,1,13.39,50,6,6,0,0,1,19,44.07c2.13-.13,4.26,0,6.37,0A53,53,0,0,1,25.33,51.52Zm15.4,5.41c0,2.58,0,5.16,0,7.74a6.05,6.05,0,0,1-6.07,5.94,6,6,0,0,1-6-6c0-4.56,0-9.12,0-13.68a18.77,18.77,0,0,1,0-2.81,6.06,6.06,0,0,1,6.42-5,6.12,6.12,0,0,1,5.67,6.09q0,3.86,0,7.73Zm-5.68-16c-2.48-.14-5,0-7.45,0v0H19.86a6.05,6.05,0,0,1-.07-12.08q7.92-.06,15.85,0a6.09,6.09,0,0,1,6,6.3A6.2,6.2,0,0,1,35.05,40.9Zm8.76-13.49c0-2.52,0-5,0-7.55A6.11,6.11,0,0,1,56,19.75q.06,7.7,0,15.38a6.12,6.12,0,0,1-12.23-.08c0-2.55,0-5.09,0-7.64Zm7,44.2c-3.22.25-6.17-1.75-6.54-4.81a61,61,0,0,1-.06-7.29c2.34,0,4.71-.18,7,.05a6,6,0,0,1,5,6.29A6.13,6.13,0,0,1,50.77,71.61ZM66.45,56.17a11.74,11.74,0,0,1-2.52.16c-2.17,0-4.34,0-6.51,0H49.87a6.1,6.1,0,1,1,0-12.2c5.06,0,10.13,0,15.19,0a6.09,6.09,0,0,1,1.4,12ZM71.6,35.24a6,6,0,0,1-6,5.58c-2.1,0-4.21,0-6.5,0,.17-2.55.14-5,.53-7.42a5.94,5.94,0,0,1,6.9-4.7A6.07,6.07,0,0,1,71.6,35.24Z"/></svg>