<svg id="Layer_1" data-name="Layer 1" xmlns="http://www.w3.org/2000/svg" viewBox="0 0 85 85"><defs><style>.cls-1{fill:#262626;}</style></defs><path class="cls-1" d="M42.5,0A42.5,42.5,0,1,0,85,42.5,42.5,42.5,0,0,0,42.5,0Zm19,32.79v1.27c0,12.9-9.79,27.78-27.79,27.78a27.51,27.51,0,0,1-15-4.39,20.1,20.1,0,0,0,2.33.14,19.58,19.58,0,0,0,12.12-4.16A9.76,9.76,0,0,1,24,46.65a10,10,0,0,0,4.41-.17,9.76,9.76,0,0,1-7.84-9.57v-.13A9.84,9.84,0,0,0,25,38a9.77,9.77,0,0,1-3-13A27.76,27.76,0,0,0,42.14,35.15a10.44,10.44,0,0,1-.25-2.23,9.77,9.77,0,0,1,16.89-6.68A19.48,19.48,0,0,0,65,23.87a9.74,9.74,0,0,1-4.29,5.41,19.48,19.48,0,0,0,5.61-1.54A19.7,19.7,0,0,1,61.46,32.79Z"/></svg>