<?xml version="1.0" encoding="utf-8"?>
<!-- Generator: Adobe Illustrator 25.0.0, SVG Export Plug-In . SVG Version: 6.00 Build 0)  -->
<svg version="1.1" id="Layer_1" xmlns="http://www.w3.org/2000/svg" xmlns:xlink="http://www.w3.org/1999/xlink" x="0px" y="0px"
	 viewBox="0 0 290.6 35.7" style="enable-background:new 0 0 290.6 35.7;" xml:space="preserve">
<style type="text/css">
	.st0{fill:#CB463F;}
	.st1{opacity:0.25;}
	.st2{fill:#FFFFFF;}
	.st3{fill:#565656;}
	.st4{fill:#136AC9;}
	.st5{fill:#4D4E4E;}
	.st6{fill:#48A59D;}
</style>
<path class="st0" d="M14.3,6H6.1v22h8.1c6.1,0.1,11.1-4.9,11.2-11c0,0,0,0,0,0l0,0l0,0C25.4,10.9,20.4,6,14.3,6
	C14.3,6,14.3,6,14.3,6z M13.3,10.9c3.7,0,6.3,2.2,6.3,6.2c0,4.3-2.9,6.1-6.3,6.1h-1.3V10.9L13.3,10.9z"/>
<polygon class="st0" points="27.3,6 27.3,28 27.3,28 39.9,28 39.9,28 39.9,23.2 39.9,23.2 33.1,23.2 33.1,19.4 39.5,19.4 39.5,19.4 
	39.5,14.5 39.5,14.5 33.1,14.5 33.1,10.9 39.9,10.9 39.9,10.8 39.9,6 39.9,6 27.3,6 "/>
<path class="st0" d="M52.5,14.6L51,14.1c-1-0.3-2.5-0.8-2.5-2.1s1.4-1.8,2.5-1.8c1.4,0,2.7,0.5,3.8,1.5L57,7.2l0,0l0,0
	c-2.1-1.2-4.5-1.8-6.9-1.8c-4.4,0-7.6,2.9-7.6,7.4l0,0c0,4.3,2.4,5.2,6,6.2c1.2,0.4,3.5,0.9,3.5,2.5s-1.4,2.2-2.8,2.2
	c-1.9-0.1-3.7-0.9-5.1-2.3l-2.5,4.6l0,0l0,0c2.3,1.6,5,2.5,7.8,2.5c2.3,0.1,4.5-0.7,6.2-2.1c1.6-1.5,2.4-3.7,2.3-5.9l0,0l0,0
	C57.9,17,55.5,15.5,52.5,14.6z"/>
<polygon class="st0" points="59.8,6 59.8,28 59.8,28 65.6,28 65.6,28 65.6,6 65.6,6 59.8,6 "/>
<path class="st0" d="M79.1,15.7v4.5h4.7c-0.2,2.5-2.1,3.8-4.6,3.8c-3.8,0-5.8-3.5-5.8-6.9s2-6.9,5.7-6.9c2.2,0,4.1,1.4,4.8,3.5
	l5.4-2.3l0,0l0,0c-1.9-4.1-5.4-6.2-9.9-6.2c-7.1,0-11.9,4.7-11.9,11.9l0,0l0,0c0,6.9,4.8,11.6,11.7,11.6c3.6,0.2,7-1.4,9.1-4.3
	c2-2.8,2.2-5.5,2.2-8.7l0,0l0,0L79.1,15.7z"/>
<polygon class="st0" points="108.6,6 108.6,6 108.6,19.5 108.6,19.5 98.1,6 92.3,6 92.3,6 92.3,28 92.3,28 98.1,28 98.1,28 
	98.1,14.5 98.1,14.5 108.6,28 114.3,28 114.3,28 114.3,6 114.3,6 "/>
<g class="st1">
	<path class="st2" d="M18.9,19.9l0.1-0.1L18.9,19.9z"/>
	<path class="st2" d="M18.6,20.5l0.1-0.1L18.6,20.5z"/>
	<path class="st2" d="M18.3,21c0,0,0.1-0.1,0.1-0.1C18.4,20.9,18.3,21,18.3,21z"/>
	<path class="st2" d="M19.4,18.6C19.4,18.6,19.4,18.6,19.4,18.6C19.4,18.4,19.4,18.5,19.4,18.6z"/>
	<path class="st2" d="M19.5,17.8L19.5,17.8z"/>
	<path class="st2" d="M18,21.3l-0.1,0.1L18,21.3z"/>
	<path class="st2" d="M19.2,19.3v-0.1V19.3z"/>
	<path class="st2" d="M24.8,20.8c0,0,0-0.1,0-0.1C24.8,20.7,24.8,20.7,24.8,20.8z"/>
	<path class="st2" d="M24.3,21.8L24.3,21.8L24.3,21.8z"/>
	<path class="st2" d="M18.6,6.8c0.7,0.3,1.3,0.6,1.9,1C19.9,7.4,19.3,7.1,18.6,6.8z"/>
	<path class="st2" d="M14.3,6.2H6.4v15.1l5.2,0.2V10.6h1.6c4,0,6.5,2.5,6.5,6.4c0.1,1.7-0.5,3.4-1.8,4.7l6.1,0.1
		c0.7-1.5,1.1-3.1,1.1-4.8C25.2,11,20.3,6.2,14.3,6.2z"/>
	<path class="st2" d="M25.1,19.6c0,0,0-0.1,0-0.1S25.1,19.6,25.1,19.6z"/>
	<path class="st2" d="M14.3,6L14.3,6c1.5,0,3,0.3,4.3,0.8C17.2,6.3,15.8,6,14.3,6z"/>
	<path class="st2" d="M25.4,18.4c0,0,0-0.1,0-0.1C25.4,18.3,25.4,18.3,25.4,18.4z"/>
	<path class="st2" d="M27.6,21.9l5.2,0.1v-2.8h6.5v-4.4h-6.5v-4.2h6.8V6.2h-12L27.6,21.9z"/>
	<path class="st2" d="M52.4,14.8l-1.5-0.4c-1-0.3-2.7-0.9-2.7-2.3s1.6-2,2.7-2c1.4,0,2.7,0.5,3.7,1.3l2-4l0,0
		c-2-1.1-4.3-1.6-6.5-1.7c-4.4,0-7.3,2.9-7.3,7.2c0,4.1,2.2,5,5.8,6l0.2,0c1.3,0.4,3.5,1,3.5,2.7c0,0.2,0,0.4-0.1,0.6h5.4
		c0.1-0.5,0.1-1,0.1-1.5C57.7,17.7,56,15.9,52.4,14.8z"/>
	<path class="st2" d="M44.2,21.9L44,22.1h0.4L44.2,21.9z"/>
	<path class="st2" d="M51.9,21.5L51.9,21.5c0,0.2,0,0.4-0.1,0.5C51.9,21.9,51.9,21.7,51.9,21.5z"/>
	<path class="st2" d="M44.1,21.5c0.2,0.2,0.4,0.3,0.6,0.5C44.5,21.8,44.3,21.7,44.1,21.5z"/>
	<path class="st2" d="M57.8,22.1L57.8,22.1L57.8,22.1z"/>
	<polygon class="st2" points="57,7.2 57,7.2 57,7.2 57,7.2 	"/>
	<path class="st2" d="M57.8,19.3c-0.2-1.1-0.7-2-1.5-2.8C57.1,17.3,57.6,18.3,57.8,19.3z"/>
	<path class="st2" d="M60.1,22.1h5.2V6.2h-5.2V22.1z"/>
	<path class="st2" d="M74.3,21c0.2,0.4,0.4,0.7,0.6,1C74.7,21.7,74.5,21.4,74.3,21z"/>
	<path class="st2" d="M73.8,19.8c0.1,0.4,0.3,0.8,0.5,1.1C74.1,20.5,73.9,20.2,73.8,19.8z"/>
	<path class="st2" d="M73.4,17.1L73.4,17.1c0,0.4,0,0.9,0.1,1.3C73.4,18,73.4,17.6,73.4,17.1z"/>
	<path class="st2" d="M73.1,17.1c0-3.5,2.1-7.2,6-7.2c2.2,0,4.2,1.4,4.9,3.4l5-2.1l0,0c-1.7-3.7-5.5-6-9.6-5.8
		c-7,0-11.7,4.7-11.7,11.6c0,1.7,0.3,3.4,1,4.9l6,0C73.6,20.6,73.1,18.9,73.1,17.1z"/>
	<path class="st2" d="M73.5,18.5c0.1,0.4,0.2,0.8,0.3,1.2C73.6,19.3,73.5,18.9,73.5,18.5z"/>
	<path class="st2" d="M79.3,5.2c-0.9,0-1.7,0.1-2.6,0.2C77.6,5.3,78.5,5.2,79.3,5.2z"/>
	<path class="st2" d="M79.4,16v4h4.7v0.3c0,0.6-0.2,1.1-0.4,1.6l5.8-0.1c0.6-1.9,0.9-3.8,0.8-5.8H79.4z"/>
	<path class="st2" d="M90.4,17.2c0,0.1,0,0.2,0,0.3C90.4,17.4,90.4,17.3,90.4,17.2z"/>
	<path class="st2" d="M90.3,18.7v0.2V18.7z"/>
	<path class="st2" d="M89.6,21.8L89.6,21.8C89.6,21.8,89.6,21.8,89.6,21.8L89.6,21.8z"/>
	<polygon class="st2" points="108.6,19.5 98.1,6 98.1,6 108.6,19.5 	"/>
	<path class="st2" d="M108.8,19.5v0.2h-0.4l-0.1-0.1L97.9,6.2h-5.4v15.5l5.2-0.1v-7.3h0.4l0.1,0.1l5.5,7.1l10.3-0.3v-15h-5.2V19.5z"
		/>
	<rect x="98.1" y="14.5" class="st2" width="0" height="7.1"/>
</g>
<path class="st3" d="M127.6,10.1c-0.7-1.3-2.1-2.1-3.6-2.1c-1.8,0-3.7,1.2-3.7,3.1c0,1.7,1.7,2.6,3.1,3.2l1.6,0.6
	c3.1,1.2,5.5,3,5.5,6.7c-0.1,3.9-3.4,6.9-7.2,6.7c-3.4-0.1-6.2-2.7-6.7-6l2.8-0.6c0,2.3,1.9,4.2,4.2,4.1c2.3,0,4.2-1.9,4.1-4.2
	c0-2.4-1.9-3.4-3.8-4.2l-1.5-0.6c-2.5-1.1-4.8-2.5-4.8-5.6c0-3.6,3.2-5.7,6.5-5.7c2.4,0,4.6,1.2,5.7,3.3L127.6,10.1z"/>
<path class="st3" d="M136.9,22.5l-2.5,5.5h-3L142,4.9L152.6,28h-3l-2.5-5.5L136.9,22.5z M142,11l-3.9,9h7.9L142,11z"/>
<path class="st3" d="M157.5,8.4v6.2h7.7v2.5h-7.7V28h-2.8V5.9h10.7v2.5H157.5z"/>
<path class="st3" d="M169,5.9h11.9v2.5h-9.1v6.2h8.9v2.5h-8.9v8.4h9.1V28H169V5.9z"/>
<g class="st1">
	<path class="st2" d="M127.8,16.4L127.8,16.4L127.8,16.4z"/>
	<path class="st2" d="M127.5,20.5c0,0.1,0.1,0.2,0.1,0.3C127.6,20.7,127.6,20.6,127.5,20.5z"/>
	<path class="st2" d="M117.6,11.1c0,3,2.3,4.5,4.8,5.5l1.5,0.6c1.7,0.7,3.4,1.6,3.8,3.6l2.6-0.1c-0.3-3.3-2.9-4.8-5.4-5.8l-1.6-0.6
		c-2.1-0.8-3.2-1.9-3.2-3.3c0-2,2-3.2,3.8-3.2c1.5-0.1,2.9,0.7,3.6,2.1l2-1.2c-1.1-2-3.3-3.3-5.6-3.2
		C120.9,5.5,117.6,7.5,117.6,11.1z"/>
	<path class="st2" d="M126.9,19.3c0.1,0.1,0.1,0.2,0.2,0.2C127,19.5,126.9,19.4,126.9,19.3z"/>
	<path class="st2" d="M127.2,19.9c0.1,0.1,0.1,0.2,0.2,0.3C127.4,20,127.3,20,127.2,19.9z"/>
	<path class="st2" d="M126,15.4L126,15.4L126,15.4z"/>
	<path class="st2" d="M128.7,17.1L128.7,17.1L128.7,17.1z"/>
	<path class="st2" d="M126.9,15.9L126.9,15.9L126.9,15.9z"/>
	<path class="st2" d="M127.6,10.1L127.6,10.1c-0.7-1.3-2.1-2.1-3.6-2.1l0,0C125.5,7.9,126.9,8.8,127.6,10.1z"/>
	<path class="st2" d="M125.8,18.4l0.3,0.2L125.8,18.4z"/>
	<path class="st2" d="M125.2,18l0.3,0.2L125.2,18z"/>
	<path class="st2" d="M124.5,17.7l0.3,0.1L124.5,17.7z"/>
	<path class="st2" d="M122.3,16.8l1.5,0.6l0.2,0.1l-0.2-0.1L122.3,16.8c-2.5-1.1-4.8-2.5-4.8-5.6c0-3.6,3.2-5.7,6.5-5.7l0,0
		c-3.3,0-6.5,2.1-6.5,5.7C117.5,14.2,119.8,15.7,122.3,16.8z"/>
	<path class="st2" d="M126.6,19c-0.1-0.1-0.1-0.2-0.2-0.2C126.5,18.8,126.5,18.9,126.6,19z"/>
	<path class="st2" d="M130.4,20.8L130.4,20.8C130.4,20.8,130.4,20.8,130.4,20.8L130.4,20.8z"/>
	<path class="st2" d="M130.2,19.7L130.2,19.7z"/>
	<path class="st2" d="M129.3,17.9C129.3,17.9,129.3,17.8,129.3,17.9C129.3,17.8,129.3,17.9,129.3,17.9z"/>
</g>
<g class="st1">
	<path class="st2" d="M148.8,20L142,5.2l-7,15.4C139.6,20.4,144.3,20.2,148.8,20z M141.9,11l0.1-0.2l0.1,0.2l3.9,9l0.1,0.1h-8.2
		L138,20L141.9,11z"/>
	<polygon class="st2" points="145.9,20 145.9,20 142,11 142,11 	"/>
	<polygon class="st2" points="142,4.9 142,4.9 134.8,20.6 134.8,20.6 	"/>
</g>
<g class="st1">
	<path class="st2" d="M154.8,19.7l2.6-0.1v-2.5h7.7v-2.3h-7.7V8.3h8V6h-10.6V19.7z"/>
</g>
<g class="st1">
	<polygon class="st2" points="171.7,17.1 180.6,17.1 180.6,17.1 	"/>
	<path class="st2" d="M171.6,18.9V17h8.9v-2.3h-8.9V8.3h9.1V6h-11.7v13L171.6,18.9z"/>
	<rect x="169" y="5.9" class="st2" width="0" height="13.1"/>
</g>
<g>
	<polygon class="st2" points="220.8,30.1 239.9,7.1 258.6,30.1 	"/>
	<polygon class="st2" points="286.8,6.3 268.2,29.7 249,6.3 	"/>
	<polygon class="st4" points="193.1,5.8 213.4,30.5 233.1,5.8 	"/>
	<path class="st2" d="M214.8,22.3c-0.8,0.3-1.6,0.4-2.4,0.4c-0.8,0-1.6-0.2-2.3-0.5c-1.4-0.6-2.5-1.8-3.1-3.2
		c-0.6-1.4-0.5-3,0.4-4.2c0.4-0.6,0.9-1.1,1.6-1.4c0.3-0.2,0.7-0.3,1-0.4c0.3-0.1,0.7-0.1,1-0.1c1.4,0.1,2.7,1,3.2,2.4
		c0.6,1.6-0.2,3.4-1.7,4.1c1.1,0,2-0.5,2.7-1.4c0.7-0.9,1-2.1,0.8-3.2c-0.2-1.2-0.8-2.2-1.6-3c-0.9-0.8-2-1.3-3.2-1.4
		c-0.6-0.1-1.2,0-1.8,0.1c-0.6,0.1-1.1,0.3-1.6,0.6c-2.1,1.1-3.5,3.2-3.7,5.5c0,0.3,0,0.6,0,0.9l9.3,11.4l8.4-10.6
		c-0.7,0.5-1.4,1-2.1,1.5C218.1,20.8,216.5,21.7,214.8,22.3z"/>
	<path class="st0" d="M247.6,5.8l20.2,24.8l19.7-24.8H247.6z M279.5,12.4L277.6,9l1.3-2.2h3.1l-2.9,2.4L279.5,12.4z M270.8,14.4
		l-4,8l0.5-8l-4-3.6l4.3-4h5.4l-5.3,4.4L270.8,14.4z M259.4,8.9l-2.6,3.7l0.5-3.6l-2.2-2.2h3.2L259.4,8.9z"/>
	<rect x="258.5" y="23.3" class="st5" width="19.3" height="1.3"/>
	<path class="st6" d="M239.9,6.3l-20.2,24.3h39.9L239.9,6.3z M235.1,29.4l-0.7,0.2h-2.1c0.6-0.2,1.3-0.4,2-0.5l0.7-0.2l-0.2-0.8
		l2.2,0.3c3-0.8,5.8-2.3,8.1-4.4l-0.5-0.4l2-1.2c0.9-1.1,1.7-2.2,2.4-3.4l0.4,0.5c-0.7,1.1-1.4,2.2-2.2,3.2l-0.5,2.3l-1-0.7
		c-2.3,2.2-5.1,3.7-8.2,4.6l-1,0.8h-1.2L235.1,29.4z M237.6,12l2.2-0.7c0.6-0.5,1.1-1,1.5-1.6l0.4,0.4c-0.5,0.6-1,1.1-1.5,1.6
		l-1.1,2.1l-0.6-0.8c-1.6,1-3.2,1.9-5,2.6l0.8-0.9c1.3-0.6,2.6-1.3,3.8-2.1L237.6,12z M230.3,19.6h2.2c3-0.7,5.9-1.9,8.5-3.5
		l-0.7-0.8l2.5-0.8c0.5-0.5,0.9-1,1.2-1.6l0.3,0.4c-0.4,0.7-1,1.4-1.6,2l-1,1.8l-0.5-0.6c-2.6,1.6-5.4,2.7-8.3,3.4l-1.7,1.8
		l-0.5-1.1c-0.6,0.2-1.3,0.4-1.9,0.6l0.6-0.8l1-0.3L230.3,19.6z M224.3,27.5l2-0.4c2.1-1.1,4.3-1.9,6.7-2.3l0.3-0.1l-0.2-0.9
		l2.6,0.3c3-0.6,5.8-2.1,7.9-4.3l-0.7-0.5l2.3-1.4c0.5-0.7,0.9-1.4,1.3-2.1l0.4,0.4c-0.5,0.8-1,1.6-1.5,2.4l-0.5,2l-0.8-0.6
		c-2.3,2.4-5.3,4-8.6,4.6l-1.7,1.3l-0.2-0.9l-0.3,0.1c-2.1,0.3-4.2,1-6.1,1.9l-1.4,2.1l-0.5-0.8c-0.3,0.3-0.6,0.6-0.8,0.9h-0.7
		c0.4-0.5,0.8-0.9,1.2-1.3L224.3,27.5z M248.3,28l-0.5-0.6l2.2-0.7c1-0.9,1.9-2,2.5-3.2L253,24c-0.7,1.2-1.5,2.2-2.5,3.1l-1.1,2.1
		l-0.6-0.8c-0.6,0.4-1.3,0.8-1.9,1.1h-1.2C246.6,29.1,247.5,28.6,248.3,28L248.3,28z M255,26.6l0.4,0.5c-0.4,0.9-0.8,1.7-1.4,2.5
		h-0.7C254.1,28.7,254.7,27.7,255,26.6L255,26.6z"/>
	<rect x="230.3" y="12.2" class="st5" width="19.2" height="1.2"/>
</g>
</svg>
