<?xml version="1.0" encoding="UTF-8"?><svg xmlns="http://www.w3.org/2000/svg" viewBox="0 0 576 576"><style xmlns="http://www.w3.org/2000/svg">:scope { fill: white }</style><path d="m207.81,233.3l.46.03c13.64,1.02,16.04,6.31,16.04,17.07v52.78l-61.02-75.09-.15-.18h-38.17v5.43h.5c1.88,0,4.45,0,14.57,12.46v83.91c0,11.42-4.92,12.51-15.17,13.7l-.44.05v5.38h41.27v-5.38l-.45-.05c-13.19-1.43-16.41-4.78-16.41-17.06v-70.01l78.57,95.69h5.69v-105c0-8.53,1.21-12.16,13.41-13.7l.44-.06v-5.37h-39.14v5.39Z"/><path d="m321.86,281.52l-26.07-12.95c-14.64-7.31-18-11.14-18-20.48,0-11.24,9.58-16.35,18.49-16.35s17.1,3.9,23.65,11.58c6.8,7.97,9.7,17.24,10.63,20.86l.1.38h5.86v-39.49h-6.21l-.1.37c-.93,3.52-1.75,5.66-5.36,5.66-1.85,0-4.18-.81-7.13-1.83-4.89-1.69-11.6-4.02-20.54-4.02-37.8,0-39.71,29.52-39.71,35.44,0,8.29,0,23.73,30.63,38.42l11.88,5.67c12.14,5.8,19.59,9.92,19.59,21.19,0,1.98-.61,19.37-21.68,19.37-25.66,0-33.64-26.27-35.88-37.56l-.08-.4h-6.05v44.82h6.03l.09-.38c.8-3.2,1.66-5.65,4.84-5.65,1.91,0,4.21.79,7.12,1.78,5.23,1.79,12.4,4.25,23.22,4.25,30.57,0,44.5-19.48,44.5-37.58,0-22.51-17.77-32.08-19.8-33.1Z"/><path d="m351.1,233.3l.72.05c8.31.54,14.88.97,14.88,12.08v85.86c0,10.51-5.03,11.04-15.04,12.09l-.56.06v5.39h64.86v-5.41l-.48-.02c-12.28-.52-19.04-.81-19.04-12.1v-40.83c20.88.18,24.11,11.85,26.15,27.06l.06.43h5.37v-60.96h-5.35l-.07.41c-2.34,13.38-4.55,26.02-25.75,26.02-.13,0-.26,0-.4,0v-40.66c0-7.07,2.48-7.84,12.26-7.84,30.35,0,34.88,11.04,38.72,29.22l.08.4h5.16v-36.66h-101.57v5.4Z"/><path d="m509.25,259.88c-1.66-4.37-3.2-8.77-4.59-13.23-.83-8.42-.87-16.74-.69-24.02,3.01-15.63,14.3-23.9,27.86-29-1.57-3.97-3.53-8.69-4.89-11.97-14.61,7.09-32.21,8.36-45.45-4.14-2.81-2.98-5.57-6.03-8.23-9.17-4.41-7.98-7.91-16.28-10.72-23.58-3.18-15.6,4.08-27.55,14.65-37.46-2.98-3.06-6.59-6.67-9.1-9.18-10.8,12.14-26.56,20.05-43.58,13.57-3.25-1.46-6.48-2.97-9.67-4.58-7.44-5.84-14.12-12.42-19.71-18.29-8.91-13.18-6.78-27.01-.8-40.2-3.92-1.69-8.64-3.65-11.92-5-5.33,15.35-16.88,28.68-35.07,29.21-5.55-.16-11.09-.47-16.63-1.06-7.06-2.31-13.76-5.07-19.64-7.67-13.28-8.76-16.6-22.36-16.12-36.83-4.27-.06-9.38-.06-12.92-.06.95,16.21-4.62,32.95-21.21,40.4-3.84,1.46-7.7,2.83-11.61,4.09-9.03,1.01-18.01,1.06-25.82.87-15.62-3.02-23.89-14.31-29-27.86-3.96,1.57-8.68,3.53-11.94,4.88,7.08,14.64,8.34,32.22-4.15,45.45-3.35,3.16-6.78,6.24-10.33,9.2-7.78,4.24-15.84,7.62-22.95,10.37-15.58,3.2-27.54-4.08-37.45-14.65-3.06,2.98-6.67,6.59-9.17,9.1,12.14,10.8,20.04,26.57,13.56,43.58-1.59,3.55-3.25,7.06-5.01,10.53-5.6,6.97-11.81,13.25-17.39,18.55-13.17,8.91-27,6.77-40.2.79-1.68,3.92-3.64,8.64-5,11.91,15.35,5.34,28.69,16.88,29.21,35.07-.14,4.83-.39,9.65-.84,14.48-2.44,7.92-5.51,15.45-8.41,21.99-8.76,13.27-22.36,16.59-36.84,16.12-.05,4.26-.06,9.38-.05,12.91,16.21-.94,32.96,4.62,40.4,21.23,1.5,3.93,2.91,7.9,4.19,11.92,1,8.98,1.04,17.9.85,25.66-3.02,15.63-14.31,23.89-27.87,29,1.58,3.97,3.53,8.69,4.89,11.96,14.63-7.08,32.22-8.34,45.45,4.15,3.11,3.28,6.14,6.66,9.05,10.14,4.21,7.75,7.58,15.77,10.32,22.84,3.19,15.59-4.08,27.54-14.66,37.45,2.98,3.05,6.59,6.67,9.1,9.17,10.8-12.13,26.57-20.04,43.58-13.56,3.79,1.7,7.55,3.48,11.25,5.39,6.92,5.57,13.14,11.74,18.41,17.27,8.92,13.17,6.78,27,.8,40.2,3.92,1.7,8.64,3.64,11.91,5.01,5.33-15.36,16.88-28.7,35.08-29.21,4.65.13,9.29.37,13.94.79,8.32,2.48,16.24,5.71,23.07,8.74,13.28,8.77,16.59,22.37,16.12,36.84,4.27.06,9.37.06,12.92.06-.95-16.23,4.62-32.96,21.22-40.41,4.4-1.68,8.84-3.23,13.34-4.63,8.4-.82,16.68-.85,23.95-.68,15.63,3.02,23.88,14.31,28.99,27.87,3.96-1.58,8.69-3.54,11.96-4.89-7.08-14.63-8.35-32.22,4.15-45.46,3.35-3.16,6.78-6.23,10.32-9.19,7.41-3.95,15.01-7.14,21.76-9.75,15.58-3.19,27.54,4.08,37.45,14.65,3.05-2.97,6.67-6.59,9.18-9.09-12.14-10.8-20.05-26.57-13.57-43.58,2.12-4.73,4.37-9.39,6.83-13.98,5.23-6.29,10.87-11.98,15.99-16.85,13.18-8.92,27-6.78,40.2-.8,1.68-3.92,3.64-8.62,5-11.92-15.35-5.32-28.68-16.87-29.22-35.05.14-5.11.42-10.21.93-15.31,2.38-7.5,5.3-14.61,8.06-20.83,8.76-13.27,22.35-16.59,36.83-16.12.07-4.28.07-9.38.07-12.92-16.23.95-32.96-4.62-40.42-21.22Zm-62.8-105.74c6.03,1.53,11.49,7.38,15.93,12.73,4.25,6.68,9.33,13.76,11.49,22.04l-.94,3.47c-2.42,5.63-9.45,6.99-14.9,8.74-2.4.37-4.79.75-7.18,1.14-6.1-11.42-13.38-22.12-21.66-31.95,1.82-2.89,3.7-5.75,5.67-8.55,3.06-3.75,6.46-7.8,11.6-7.61Zm-157.89,313.7c-98.81,0-179.2-80.39-179.2-179.19s80.39-179.2,179.2-179.2,179.2,80.39,179.2,179.2-80.39,179.19-179.2,179.19Zm95.29-364.19c5.57-.81,12.08,1.84,17.83,4.76,6.74,4.8,14.67,9.53,20.13,16.75l.46,3.56c-.08,6.12-6.05,10.07-10.42,13.77-2.24,1.35-4.46,2.72-6.67,4.09-9.64-7.93-20.1-14.89-31.22-20.75.6-3.58,1.28-7.15,2.07-10.71,1.4-4.65,2.99-9.69,7.82-11.48Zm-77.54-21.53c6.66-3.96,17.45-2.55,25.13-1.77,1.65.17,3.25.43,4.84.71,4.71,1.18,9.42,2.71,13.72,5.23l1.79,3.11c2.27,5.68-1.73,11.62-4.36,16.72-1.64,2.24-3.26,4.48-4.88,6.72-11.89-3.66-24.3-6.14-37.07-7.31-.74-3.26-1.41-6.53-1.98-9.83-.49-4.82-.96-10.09,2.82-13.59Zm-80.44,8.92c3.73-4.98,11.24-7.79,17.89-9.85,7.77-1.38,16.19-3.32,24.63-2.15l2.84,2.2c4.27,4.38,2.84,11.4,2.37,17.12-.59,2.39-1.16,4.78-1.72,7.16-13.05,1.18-25.71,3.71-37.84,7.48-1.93-2.72-3.8-5.49-5.6-8.32-2.28-4.27-4.73-8.96-2.58-13.64Zm-57.21,22.49c6.38-4.11,13.14-8.77,21.01-10.81l3.46.93c5.61,2.42,6.98,9.44,8.73,14.9.37,2.46.77,4.9,1.17,7.35-11.69,6.17-22.63,13.55-32.67,22-2.83-1.78-5.63-3.62-8.37-5.55-3.75-3.08-7.81-6.47-7.61-11.62,1.67-6.6,8.57-12.55,14.28-17.2Zm-58.78,60.22c4.39-6.32,8.91-13.39,15.51-18.39l3.57-.46c6.12.08,10.07,6.05,13.77,10.42,1.31,2.16,2.63,4.31,3.96,6.45-7.91,9.58-14.85,19.98-20.71,31.03-3.38-.57-6.76-1.22-10.12-1.97-4.64-1.4-9.7-2.98-11.48-7.82-.88-6.05,2.32-13.19,5.51-19.28Zm-29.39,72.47c1.4-6.5,2.99-13.32,6.52-19.34l3.12-1.79c5.69-2.26,11.62,1.73,16.72,4.36,2.04,1.5,4.09,2.98,6.14,4.46-3.78,12.09-6.33,24.72-7.53,37.74-3.16.71-6.34,1.36-9.54,1.92-4.83.48-10.09.95-13.59-2.83-3.85-6.48-2.62-16.89-1.83-24.52Zm10.83,105.13c-5.08-3.8-7.9-11.53-9.96-18.26-1.37-7.7-3.27-16.06-2.12-24.43l2.2-2.83c4.38-4.27,11.4-2.85,17.1-2.37,2.29.56,4.58,1.11,6.86,1.65,1.18,13.2,3.74,26.01,7.57,38.27-2.63,1.85-5.29,3.67-8.01,5.4-4.28,2.29-8.96,4.73-13.64,2.58Zm39.48,71.2c-6.56-1.66-12.46-8.46-17.09-14.15-4.08-6.33-8.69-13.06-10.72-20.84l.94-3.46c2.42-5.63,9.45-6.99,14.9-8.74,2.35-.36,4.68-.73,7.01-1.11,6.16,11.66,13.53,22.58,21.95,32.59-1.73,2.74-3.51,5.46-5.37,8.12-3.07,3.75-6.46,7.81-11.62,7.6Zm62.87,50.27c-6.32.93-13.85-2.61-20.1-5.94-6.26-4.35-13.21-8.83-18.14-15.34l-.45-3.55c.08-6.12,6.05-10.08,10.42-13.79,2.07-1.25,4.12-2.51,6.17-3.78,9.81,8.11,20.48,15.21,31.83,21.16-.56,3.26-1.19,6.52-1.92,9.75-1.4,4.65-2.98,9.69-7.81,11.47Zm78.26,22.35c-6.04,3.59-15.49,2.76-22.92,2-7.13-1.53-14.8-3.06-21.48-6.98l-1.78-3.11c-2.27-5.68,1.73-11.62,4.35-16.72,1.46-1.98,2.89-3.96,4.32-5.95,12.3,3.79,25.15,6.32,38.39,7.45.73,3.22,1.39,6.46,1.96,9.72.47,4.83.95,10.09-2.84,13.6Zm80.31-9.27c-4.32,5.79-13.75,8.64-21,10.79-6.84,1.26-14.12,2.57-21.38,1.57l-2.83-2.2c-4.28-4.38-2.85-11.4-2.37-17.11.6-2.43,1.17-4.85,1.74-7.28,13-1.26,25.62-3.88,37.69-7.71,1.92,2.72,3.79,5.48,5.58,8.29,2.28,4.27,4.74,8.97,2.58,13.64Zm55.18-21.17c-5.78,3.75-11.94,7.67-18.96,9.51l-3.46-.95c-5.63-2.42-6.99-9.45-8.75-14.91-.38-2.51-.78-5.01-1.19-7.51,11.22-6.01,21.75-13.15,31.43-21.26,2.86,1.8,5.69,3.67,8.46,5.62,3.76,3.07,7.81,6.45,7.61,11.61-1.77,6.96-9.29,13.15-15.14,17.9Zm57.58-58.04c-.11.2-.23.39-.34.59-3.69,5.33-7.7,10.83-13.1,14.93l-3.57.45c-6.12-.07-10.07-6.05-13.78-10.42-1.32-2.18-2.65-4.33-3.98-6.49,8.32-10.05,15.58-20.99,21.64-32.66,3.23.55,6.44,1.18,9.65,1.89,4.64,1.41,9.68,2.99,11.47,7.82,1.11,7.67-4.32,17.1-7.99,23.9Zm31.53-76.16c-.05.49-.12.97-.19,1.46-1.29,5.76-2.9,11.66-6,16.95l-3.11,1.8c-5.69,2.26-11.63-1.75-16.72-4.36-1.99-1.46-3.98-2.91-5.98-4.34,3.66-12.05,6.11-24.62,7.22-37.56,3.12-.7,6.26-1.34,9.42-1.89,4.83-.48,10.11-.94,13.6,2.83,3.97,6.66,2.56,17.45,1.77,25.13Zm1.31-63.05l-2.19,2.84c-4.39,4.27-11.4,2.84-17.12,2.38-2.32-.57-4.63-1.12-6.95-1.67-1.25-13.08-3.87-25.76-7.73-37.9,2.63-1.86,5.29-3.68,8.02-5.41,4.27-2.31,8.96-4.74,13.64-2.59,5.73,4.28,8.58,13.56,10.72,20.78,1.27,6.9,2.62,14.23,1.59,21.57Z"/></svg>
