<svg id="Layer_1" data-name="Layer 1" xmlns="http://www.w3.org/2000/svg" viewBox="0 0 150 150"><defs><style>.cls-1{fill:#fff;}</style></defs><title>1clrDisc-Workspace</title><path class="cls-1" d="M21,98.4V35.84a6.38,6.38,0,0,1,1.94-3.89A6.2,6.2,0,0,1,27,30.16V30h96v.16a6.54,6.54,0,0,1,6,5.68V99.63a6.5,6.5,0,0,1-6.37,6.37H88v8h6.7a3,3,0,0,1,1.81.55A3,3,0,0,1,94.75,120H54.94a2.85,2.85,0,0,1-2.11-.87A2.91,2.91,0,0,1,52,117a3,3,0,0,1,1.25-2.46,2.85,2.85,0,0,1,1.73-.54H62v-9H27.32a5.78,5.78,0,0,1-5.48-3.33A6.27,6.27,0,0,1,21,98.4Zm6.53,1.6h94.95a.53.53,0,0,0,.53-.53V36H27V99.47A.53.53,0,0,0,27.53,100Z"/><path class="cls-1" d="M50.28,78.4a26.59,26.59,0,0,1,0-20.85A26.84,26.84,0,0,1,56,49a27.13,27.13,0,0,1,8.56-5.71,26.61,26.61,0,0,1,20.86,0,26.37,26.37,0,0,1,14.3,14.26,26.58,26.58,0,0,1,0,20.85,26.39,26.39,0,0,1-14.3,14.3,26.62,26.62,0,0,1-20.86,0A26.43,26.43,0,0,1,50.28,78.4ZM51.41,68A23.08,23.08,0,0,0,54.58,79.8a23.5,23.5,0,0,0,8.6,8.61,23.49,23.49,0,0,0,21,1.29,24.06,24.06,0,0,0,7.53-5,23.46,23.46,0,0,0,5-7.52,23.41,23.41,0,0,0,0-18.31,23.5,23.5,0,0,0-5-7.51,24,24,0,0,0-7.54-5,23.45,23.45,0,0,0-21,1.29,23.52,23.52,0,0,0-8.6,8.59A23,23,0,0,0,51.41,68Zm8.13-13.36a1.65,1.65,0,0,1,2.14-1.25l20.37,7.21a1.22,1.22,0,0,1,.62.38,1.5,1.5,0,0,1,.35.65l6.61,19.76A1.38,1.38,0,0,1,89.22,83a1.47,1.47,0,0,1-1.09.41,1.1,1.1,0,0,1-.59-.12L68.47,76a1.62,1.62,0,0,1-.88-.88l-8-19.59A1.64,1.64,0,0,1,59.54,54.62Zm10.8,18.63L85.5,79.08,80.21,63.34l-2.79,2.79a1.28,1.28,0,0,0-.23-.32,3.1,3.1,0,0,0-4.37,4.4,1.25,1.25,0,0,0,.29.23Z"/></svg>