<svg id="Layer_1" data-name="Layer 1" xmlns="http://www.w3.org/2000/svg" viewBox="0 0 150 150"><defs><style>.cls-1{fill:#fff;}</style></defs><title>1clrZoom</title><path class="cls-1" d="M84.25,50.32c2.79,0,4.87,1.83,6.12,3.36A11.27,11.27,0,0,1,93,59.52v40.82H31.46c-6.36,0-7.45-8-7.46-8.07V50.33H84.25m0-7H20.45c-.78,0-3.45.37-3.45,5.47V92.23c0,3.5,3.41,15.1,14.49,15.1H97.36c2.81,0,2.64-3.16,2.64-3.16V59.55c0-5.77-6-16.23-15.78-16.23Z"/><path class="cls-1" d="M104,62.46V88s24.06,16.78,26.26,18.27,2.74,0,2.74,0V45.11c0-2.45-1.48-3-2.74-2Z"/></svg>