<svg id="Layer_1" data-name="Layer 1" xmlns="http://www.w3.org/2000/svg" viewBox="0 0 150 150"><defs><style>.cls-1{fill:#fff;}</style></defs><title>1clrTraining</title><path class="cls-1" d="M117.5,60.11l-14.17,46.67c-1.29,4.38-10.25,7.55-10.25,7.55H45.54c-5.25,0-10.85-4.17-12.76-9.52a9.52,9.52,0,0,1-.1-6.53c.1-1,.31-2.06.36-3.29.05-.82-.41-1.49-.31-2.11.21-1.23,1.29-2.11,2.11-3.5A36.69,36.69,0,0,0,38.7,80c.26-1-.26-2.11,0-3s1.23-1.7,1.75-2.62A30.91,30.91,0,0,0,43.9,65c.1-1.08-.41-2.26-.1-3.09.36-1.18,1.49-1.7,2.26-2.73a27.08,27.08,0,0,0,3.6-9.31c.1-.87-.41-1.75-.26-2.67s1.44-2,2.26-3.19c2.16-3.19,2.57-10.23,9.1-8.38l-.05.16a11.72,11.72,0,0,1,2.62-.46h39.23a7.14,7.14,0,0,1,5.88,2.89,7.59,7.59,0,0,1,.93,6.7L95.25,91.64c-2.42,7.94-3.76,9.69-10.31,9.69H40.32a2.18,2.18,0,0,0-1.78.7c-.37.56-.42,1,0,2,.94,2.72,4.17,3.28,6.75,3.28h47.9s4.12-.45,4.69-2.3l15.45-50.84a8.21,8.21,0,0,0,.26-2.94,6.87,6.87,0,0,1,3,2.21A7.67,7.67,0,0,1,117.5,60.11ZM57.59,68.33H90.84a2.64,2.64,0,0,0,2.3-1.75l1.15-3.5a1.22,1.22,0,0,0-1.2-1.75H59.83a2.63,2.63,0,0,0-2.3,1.75l-1.15,3.5A1.22,1.22,0,0,0,57.59,68.33Zm4.28-13H95.12a2.63,2.63,0,0,0,2.3-1.75l1.15-3.5a1.22,1.22,0,0,0-1.2-1.75H64.11a2.64,2.64,0,0,0-2.3,1.75l-1.15,3.5A1.22,1.22,0,0,0,61.87,55.33Z"/></svg>