<svg id="Layer_1" data-name="Layer 1" xmlns="http://www.w3.org/2000/svg" viewBox="0 0 150 150"><defs><style>.cls-1{fill:#fff;}</style></defs><title>1clrStudents</title><path class="cls-1" d="M36.42,71.78a2.5,2.5,0,0,1-.92-2A2.46,2.46,0,0,1,38,67.33l9.68-.09A26.12,26.12,0,0,1,54,52l-6.85-6.71a2.5,2.5,0,0,1,0-3.6,2.62,2.62,0,0,1,3.51,0l6.8,6.8a27.22,27.22,0,0,1,15.23-6.17V32.64a2.49,2.49,0,0,1,2.52-2.56,2.46,2.46,0,0,1,2.48,2.48v9.77A26.72,26.72,0,0,1,92.89,48.5l6.8-6.8a2.64,2.64,0,0,1,1.8-.68,2.32,2.32,0,0,1,1.71.68,2.47,2.47,0,0,1,.77,1.8,2.18,2.18,0,0,1-.77,1.71L96.5,52a26.85,26.85,0,0,1,6.26,15.32l9.59-.09a2.36,2.36,0,0,1,1.76.74,2.42,2.42,0,0,1,.72,1.73,2.6,2.6,0,0,1-.72,1.85,2.32,2.32,0,0,1-1.76.77h-9.87q-.9,5.85-5.9,15.49L103,94.26a2.46,2.46,0,0,1,.77,1.8,2.63,2.63,0,0,1-.68,1.8,2.81,2.81,0,0,1-1.84.72,2.71,2.71,0,0,1-1.76-.72l-5.4-5.54-.38.65-.38.65A37.87,37.87,0,0,0,91,99.08a30.85,30.85,0,0,1-2.21,5.13,2.5,2.5,0,0,1-2.12,1.13H64.22a2.33,2.33,0,0,1-2-1A28.83,28.83,0,0,1,59,98a37.43,37.43,0,0,0-2.57-5.54,1.55,1.55,0,0,1-.18-.45l-5.81,5.81a2.5,2.5,0,0,1-3.51,0,2.46,2.46,0,0,1-.77-1.8A2.18,2.18,0,0,1,47,94.35l6.62-6.71q-5.22-9.27-6-15.31H38.07A2.5,2.5,0,0,1,36.42,71.78Zm15.94-2.41a22,22,0,0,0,2.08,8.89,104.54,104.54,0,0,0,6.32,11.64,40.24,40.24,0,0,1,2.89,6.27,31.19,31.19,0,0,0,1.94,4.15H85.27A30.46,30.46,0,0,0,86.4,97.4a39.18,39.18,0,0,1,2.66-6.32q4.24-7.49,6.45-12.55a23.16,23.16,0,0,0,2.21-9.16,21.71,21.71,0,0,0-3-11.19A22.25,22.25,0,0,0,86.44,50a22.84,22.84,0,0,0-31,8.15A21.58,21.58,0,0,0,52.37,69.37ZM58.15,73a1.52,1.52,0,0,1,0-.37A2.79,2.79,0,0,1,58.66,71L65.8,61.4a2.59,2.59,0,0,1,2.13-1.07h.32a2.53,2.53,0,0,1,2.09,1.81l3.06,9.41,6.16-7.32a2.92,2.92,0,0,1,1.81-.93,2.45,2.45,0,0,1,2,.83l7.79,8.16a2.49,2.49,0,0,1,.79,1.81,2.61,2.61,0,0,1-2.64,2.55,2.71,2.71,0,0,1-1.85-.83l-5.79-6.07-7.23,8.67a2.27,2.27,0,0,1-2,.93H72a2.66,2.66,0,0,1-2-1.81l-2.92-9.08L62.74,74.1a2.29,2.29,0,0,1-1.65,1,2.56,2.56,0,0,1-1.92-.51A2.26,2.26,0,0,1,58.15,73Zm9.35,40.35a2.52,2.52,0,0,1-1.51-.46,2.42,2.42,0,0,1-1.05-2,2.48,2.48,0,0,1,.95-2,2.59,2.59,0,0,1,1.68-.56h15a2.49,2.49,0,0,1,2.56,2.52,2.46,2.46,0,0,1-2.48,2.48Zm4.64,7a2.53,2.53,0,0,1-1.63-.53,2.54,2.54,0,0,1,.09-4,2.41,2.41,0,0,1,1.48-.46h5.85a2.4,2.4,0,0,1,1.48.46,2.54,2.54,0,0,1,.09,4,2.52,2.52,0,0,1-1.63.53Z"/></svg>