<svg id="Layer_1" data-name="Layer 1" xmlns="http://www.w3.org/2000/svg" viewBox="0 0 150 150"><defs><style>.cls-1{fill:#fff;}</style></defs><title>1clrSchedule</title><path class="cls-1" d="M21,98.73V36.17a6.38,6.38,0,0,1,1.94-3.89A6.2,6.2,0,0,1,27,30.49v-.16h96v.16a6.54,6.54,0,0,1,6,5.68V100a6.5,6.5,0,0,1-6.37,6.37H88v8h6.7a3,3,0,0,1,1.81.55,3,3,0,0,1-1.76,5.45H54.94a2.85,2.85,0,0,1-2.11-.87,2.91,2.91,0,0,1-.86-2.13,3,3,0,0,1,1.25-2.46,2.85,2.85,0,0,1,1.73-.54H62v-9H27.32A5.78,5.78,0,0,1,21.84,102,6.27,6.27,0,0,1,21,98.73Zm6.53,1.6h94.95a.53.53,0,0,0,.53-.53V36.33H27V99.81A.53.53,0,0,0,27.53,100.33Z"/><path class="cls-1" d="M49,89.5V51.16a3.62,3.62,0,0,1,.61-2.1,3.76,3.76,0,0,1,3.21-1.73H64V44.82a1.87,1.87,0,0,1,.54-1.24,1.69,1.69,0,0,1,1.24-.51,1.74,1.74,0,0,1,1.25.51c.35.34.52.75,1,1.24v2.52H82V44.82c.44-.49.61-.9,1-1.24a1.79,1.79,0,0,1,2.5,0A1.86,1.86,0,0,1,86,44.82v2.52H97.21a3.61,3.61,0,0,1,2.7,1.13A3.77,3.77,0,0,1,101,51.18V89.5a3.77,3.77,0,0,1-3.8,3.83H52.83a3.76,3.76,0,0,1-3.22-1.73A3.64,3.64,0,0,1,49,89.5Zm4-30.17H98V50.65a.32.32,0,0,0-.32-.32H86v.93a1.91,1.91,0,0,1-.55,1.25,1.75,1.75,0,0,1-2.5,0c-.34-.35-.51-.77-1-1.25v-.93H68v.93c-.44.49-.62.9-1,1.25a1.71,1.71,0,0,1-1.25.52,1.66,1.66,0,0,1-1.24-.52A1.92,1.92,0,0,1,64,51.26v-.93H53.35q-.35,0-.35.31ZM53,89a.31.31,0,0,0,.11.21.33.33,0,0,0,.24.11H97.68A.32.32,0,0,0,98,89V63.33H53Zm4-12.69v-8h8v8Zm0,10v-8h8v8Zm11-10v-8h8v8Z"/></svg>