<svg id="Layer_1" data-name="Layer 1" xmlns="http://www.w3.org/2000/svg" viewBox="0 0 150 150"><defs><style>.cls-1{fill:#fff;}</style></defs><title>1clrFacilities</title><path class="cls-1" d="M29.78,77.7a2.3,2.3,0,0,1,.81-1.8l42.6-42.6A2.54,2.54,0,0,1,75,32.49a2.43,2.43,0,0,1,1.75.81l16.9,17.06V41.45a2.53,2.53,0,0,1,.75-1.85,2.45,2.45,0,0,1,1.81-.76,2.67,2.67,0,0,1,1.91.76,2.46,2.46,0,0,1,.8,1.85V55.52l20.57,20.66a2.78,2.78,0,0,1,.71,1.9,2.44,2.44,0,0,1-.71,1.8,2.82,2.82,0,0,1-1.85.66,2.49,2.49,0,0,1-1.85-.66L75,38.75,34.19,79.5a2.41,2.41,0,0,1-3.6,0A2.29,2.29,0,0,1,29.78,77.7ZM42.08,115V78a2.42,2.42,0,0,1,.73-1.77,2.39,2.39,0,0,1,1.76-.73,2.52,2.52,0,0,1,1.83.73A2.39,2.39,0,0,1,47.15,78v34.41H65.63V97.85A2.43,2.43,0,0,1,66.41,96a2.59,2.59,0,0,1,1.87-.76H81.65a2.38,2.38,0,0,1,1.78.76,2.51,2.51,0,0,1,.73,1.81v14.59h18.53V76.85a2.52,2.52,0,0,1,.75-1.85,2.49,2.49,0,0,1,1.83-.76A2.36,2.36,0,0,1,107,75a2.57,2.57,0,0,1,.73,1.84V115a2.5,2.5,0,0,1-2.51,2.51H81.69a2.56,2.56,0,0,1-1.85-.73,2.36,2.36,0,0,1-.76-1.77V100.54h-8.2V115a2.4,2.4,0,0,1-.74,1.77,2.44,2.44,0,0,1-1.78.73H44.6a2.44,2.44,0,0,1-1.78-.73A2.41,2.41,0,0,1,42.08,115Z"/></svg>