<svg id="Layer_1" data-name="Layer 1" xmlns="http://www.w3.org/2000/svg" viewBox="0 0 150 150"><defs><style>.cls-1{fill:#fff;}</style></defs><title>1clrRecon-Portal</title><path class="cls-1" d="M26,108.89V40.78a6.38,6.38,0,0,1,6.43-6.44h85.2a6.07,6.07,0,0,1,4.54,1.89A6.3,6.3,0,0,1,124,40.77v68.12a6.3,6.3,0,0,1-1.83,4.55,6.07,6.07,0,0,1-4.54,1.89H32.43A6.38,6.38,0,0,1,26,108.89Zm6-52.55h86V40.86a.53.53,0,0,0-.53-.53H32.53a.53.53,0,0,0-.53.53Zm.53,53h84.94a.53.53,0,0,0,.53-.53V61.33H32V108.8A.53.53,0,0,0,32.53,109.33Zm5.23-58.88a2.91,2.91,0,0,1-.85-2.1,2.91,2.91,0,0,1,2.93-2.92,2.92,2.92,0,0,1,2.1.85,2.78,2.78,0,0,1,.88,2.07,3,3,0,0,1-3,3A2.78,2.78,0,0,1,37.76,50.45Zm7.29,0a2.91,2.91,0,0,1-.85-2.1,2.91,2.91,0,0,1,2.93-2.92,2.92,2.92,0,0,1,2.1.85,2.78,2.78,0,0,1,.88,2.07,3,3,0,0,1-3,3A2.78,2.78,0,0,1,45.05,50.45Zm7.31,0a2.87,2.87,0,0,1-.88-2.1,2.78,2.78,0,0,1,.88-2.07,2.91,2.91,0,0,1,2.1-.85,2.91,2.91,0,0,1,2.93,2.92,2.91,2.91,0,0,1-.85,2.1,2.78,2.78,0,0,1-2.07.88A2.87,2.87,0,0,1,52.37,50.45Z"/><path class="cls-1" d="M45.77,83.79a3.92,3.92,0,0,1,1-2.57q.86-1,1.94-2.06a51.69,51.69,0,0,1,12.09-9A36.29,36.29,0,0,1,70,66.95a33.83,33.83,0,0,1,5-.41,33.32,33.32,0,0,1,4.92.41,35.84,35.84,0,0,1,9.24,3.23,50,50,0,0,1,12.09,9,18.3,18.3,0,0,1,1.94,2.06,3.76,3.76,0,0,1,0,5.14,40.13,40.13,0,0,1-6.16,5.85q-8.28,6.61-16.31,8.36a28.37,28.37,0,0,1-5.71.57,29.16,29.16,0,0,1-5.81-.57q-8-1.75-16.25-8.36a42.56,42.56,0,0,1-6.22-5.85A3.92,3.92,0,0,1,45.77,83.79Zm3.71,0a39.07,39.07,0,0,0,5.65,5.4Q62.78,95.27,70,96.83a25.7,25.7,0,0,0,4.92.51H75a27,27,0,0,0,5-.51q7.33-1.59,14.82-7.62a35.74,35.74,0,0,0,5.71-5.39.39.39,0,0,0,0-.57q-.51-.63-1.75-1.87a43,43,0,0,0-11.17-8.25,29.83,29.83,0,0,0-8.25-3A25.7,25.7,0,0,0,75,69.78a24.79,24.79,0,0,0-4.38.38,29.45,29.45,0,0,0-8.25,2.95,44.15,44.15,0,0,0-11.24,8.24l-.84.92q-.59.63-.84,1T49.48,83.8Zm14.35,0a11.17,11.17,0,0,1,19.06-7.89A11.15,11.15,0,0,1,67.11,91.68,10.68,10.68,0,0,1,63.83,83.82Zm3.52,0a7.31,7.31,0,0,0,2.25,5.35A7.41,7.41,0,0,0,75,91.42a7.61,7.61,0,0,0,7.59-7.6,7.4,7.4,0,0,0-2.21-5.4A7.27,7.27,0,0,0,75,76.18a7.43,7.43,0,0,0-5.43,2.23A7.32,7.32,0,0,0,67.35,83.82Z"/></svg>