<svg id="Layer_1" data-name="Layer 1" xmlns="http://www.w3.org/2000/svg" viewBox="0 0 150 150"><defs><style>.cls-1{fill:#fff;}</style></defs><title>1clrSlack</title><path class="cls-1" d="M119,79.55a6.84,6.84,0,0,1-4.92,6.88L105,89.55l3,8.84a7.87,7.87,0,0,1,.37,2.49,7.66,7.66,0,0,1-14.92,2.43L90.5,94.58l-16.4,5.61L77,108.87a7.92,7.92,0,0,1,.42,2.49A7.7,7.7,0,0,1,69.81,119a7.62,7.62,0,0,1-7.3-5.24l-2.91-8.62L51.5,108a9,9,0,0,1-2.65.48A7.3,7.3,0,0,1,41.34,101a7.74,7.74,0,0,1,5.24-7.3l8.25-2.8L49.28,74.31,41,77.17a8.51,8.51,0,0,1-2.54.42A7.37,7.37,0,0,1,31,70.13a7.74,7.74,0,0,1,5.24-7.3L44.52,60l-2.8-8.41a7.92,7.92,0,0,1-.42-2.49,7.66,7.66,0,0,1,14.92-2.43l2.86,8.47,16.4-5.56-2.86-8.47a7.92,7.92,0,0,1-.42-2.49,7.69,7.69,0,0,1,15-2.43L90,44.73l8.57-2.91a8.18,8.18,0,0,1,2.28-.32,7.43,7.43,0,0,1,7.67,7.3c0,3.28-2.54,6-5.5,7L94.69,58.7l5.56,16.72,8.68-3a7.85,7.85,0,0,1,2.43-.42A7.42,7.42,0,0,1,119,79.55Zm-33.29.79L80.19,63.68l-16.4,5.66L69.34,85.9Z"/></svg>