<svg id="Layer_1" data-name="Layer 1" xmlns="http://www.w3.org/2000/svg" viewBox="0 0 150 150"><defs><style>.cls-1{fill:#fff;}</style></defs><title>1clrDev-Portal</title><path class="cls-1" d="M26,108.89V40.78a6.38,6.38,0,0,1,6.43-6.44h85.2a6.07,6.07,0,0,1,4.54,1.89A6.3,6.3,0,0,1,124,40.77v68.12a6.3,6.3,0,0,1-1.83,4.55,6.07,6.07,0,0,1-4.54,1.89H32.43A6.38,6.38,0,0,1,26,108.89Zm6-52.55h86V40.86a.53.53,0,0,0-.53-.53H32.53a.53.53,0,0,0-.53.53Zm.53,53h84.94a.53.53,0,0,0,.53-.53V61.33H32V108.8A.53.53,0,0,0,32.53,109.33Zm5.23-58.88a2.91,2.91,0,0,1-.85-2.1,2.91,2.91,0,0,1,2.93-2.92,2.92,2.92,0,0,1,2.1.85,2.78,2.78,0,0,1,.88,2.07,3,3,0,0,1-3,3A2.78,2.78,0,0,1,37.76,50.45Zm7.29,0a2.91,2.91,0,0,1-.85-2.1,2.91,2.91,0,0,1,2.93-2.92,2.92,2.92,0,0,1,2.1.85,2.78,2.78,0,0,1,.88,2.07,3,3,0,0,1-3,3A2.78,2.78,0,0,1,45.05,50.45ZM49.2,86.38a2.78,2.78,0,0,1,1.33-2.5L66.22,74a2.61,2.61,0,0,1,2.21-.48,2.76,2.76,0,0,1,1.83,1.33,3,3,0,0,1-.9,4l-11.76,7.5,11.76,7.5a2.82,2.82,0,0,1,1.28,1.86A3,3,0,0,1,70.27,98a2.78,2.78,0,0,1-2.5,1.33,3.08,3.08,0,0,1-1.65-.43L50.53,88.78A2.69,2.69,0,0,1,49.2,86.38Zm3.17-35.93a2.87,2.87,0,0,1-.88-2.1,2.78,2.78,0,0,1,.88-2.07,2.91,2.91,0,0,1,2.1-.85,2.91,2.91,0,0,1,2.93,2.92,2.91,2.91,0,0,1-.85,2.1,2.78,2.78,0,0,1-2.07.88A2.87,2.87,0,0,1,52.37,50.45Zm27,45.29a2.6,2.6,0,0,1,1.28-1.86l11.76-7.5-11.76-7.5A2.6,2.6,0,0,1,79.41,77a3.49,3.49,0,0,1-.05-.58,2.9,2.9,0,0,1,.48-1.6,2.57,2.57,0,0,1,1.81-1.28l.58-.11a2.94,2.94,0,0,1,1.65.53l15.58,9.89a2.76,2.76,0,0,1,1.38,2.5,2.8,2.8,0,0,1-1.28,2.39L83.88,98.94a3.08,3.08,0,0,1-1.65.43A2.69,2.69,0,0,1,79.84,98a3.25,3.25,0,0,1-.48-1.7A3.51,3.51,0,0,1,79.41,95.75Z"/></svg>