<svg id="Layer_1" data-name="Layer 1" xmlns="http://www.w3.org/2000/svg" viewBox="0 0 150 150"><defs><style>.cls-1{fill:#fff;}</style></defs><title>1clrUser-Support</title><path class="cls-1" d="M88.88,81a16.18,16.18,0,0,0-3.52-4.66A18.46,18.46,0,0,0,73.25,71H60.51a18.73,18.73,0,0,0-12.41,5.76A17,17,0,0,0,43,89.06v21.46a.48.48,0,0,0,.48.48H70.25l-.13,5H43.86a5.73,5.73,0,0,1-4.16-1.65,5.5,5.5,0,0,1-1.69-4.1v-23a22.47,22.47,0,0,1,7.08-15.55A23.12,23.12,0,0,1,60.94,65H72.27a29.25,29.25,0,0,1,11,3.67,23.19,23.19,0,0,1,8.11,8,21.31,21.31,0,0,1,2,4.28Zm-40-35.38A16.81,16.81,0,0,1,65.73,28.86,16.81,16.81,0,0,1,82.58,45.64,16.83,16.83,0,0,1,65.73,62.48,16.83,16.83,0,0,1,48.92,45.64Zm5.32,0a11.52,11.52,0,0,0,19.66,8.15,11.43,11.43,0,0,0,0-16.22,11.53,11.53,0,0,0-19.66,8.08Z"/><path class="cls-1" d="M64.81,97.33a6.58,6.58,0,0,1-.34-1.69q0-.69,0-1.83,0-.14,0-.43c0-.19,0-.34,0-.43a7.22,7.22,0,0,1,2.34-5.42q2.69-2.73,8.22-4.25a47.75,47.75,0,0,1,12.61-1.52,54.21,54.21,0,0,1,8.75.69,40.91,40.91,0,0,1,7.74,2A15.12,15.12,0,0,1,109.84,88,7.1,7.1,0,0,1,112,93v.88q0,1.11,0,1.81a6.83,6.83,0,0,1-.34,1.67,4,4,0,0,1-.91,1.61q-1.54,1.54-4.7,1.2a12.23,12.23,0,0,1-2.83-.6,6.3,6.3,0,0,1-1.79-.93,3.28,3.28,0,0,1-1-1.31,5.15,5.15,0,0,1-.41-1.5,15.35,15.35,0,0,1,0-1.76v-.48q0-.64-1.38-1.3a16.39,16.39,0,0,0-4.1-1.13,36.23,36.23,0,0,0-6.15-.48,33.88,33.88,0,0,0-7,.65A8.61,8.61,0,0,0,77.28,93a.82.82,0,0,0-.28.57v.51a13.71,13.71,0,0,1-.09,1.77,5.66,5.66,0,0,1-.45,1.5,3.33,3.33,0,0,1-1,1.32,6.79,6.79,0,0,1-1.84.94,12.48,12.48,0,0,1-2.87.62,11,11,0,0,1-1.15,0A5,5,0,0,1,65.75,99,3.92,3.92,0,0,1,64.81,97.33ZM67,94.68v.5a2.61,2.61,0,0,0,0,.4c0,.09,0,.21,0,.37a1.71,1.71,0,0,0,.07.37l.1.31a1.24,1.24,0,0,0,.13.3l.17.23q.6.69,2.71.47.94-.11,1.59-.23A3.29,3.29,0,0,0,72.89,97a4.79,4.79,0,0,0,.64-.43,1.13,1.13,0,0,0,.33-.63,5.31,5.31,0,0,0,.12-.76q0-.31,0-1v-.61a3.22,3.22,0,0,1,1-2.4,7.6,7.6,0,0,1,2.8-1.7,17.34,17.34,0,0,1,3.91-1q2.1-.27,3.48-.35t2.67-.08l1.54,0q.81,0,2.27.15t2.74.33a23.06,23.06,0,0,1,2.73.61,11.86,11.86,0,0,1,2.47,1,5.41,5.41,0,0,1,1.7,1.44,3.13,3.13,0,0,1,.67,2v.48a4.73,4.73,0,0,0,.27,2.36q.7,1,3.52,1.22a5.17,5.17,0,0,0,.79,0,2.63,2.63,0,0,0,1.87-.52q.64-.68.55-3.29V93a4.34,4.34,0,0,0-.59-2.08,6,6,0,0,0-1.55-1.76,13.85,13.85,0,0,0-2-1.31,20.67,20.67,0,0,0-2.23-1,41.14,41.14,0,0,0-15.15-2.43A45.24,45.24,0,0,0,76,85.72q-5.06,1.33-7.37,3.64A4.69,4.69,0,0,0,67,92.93q0,.14,0,.45c0,.21,0,.36,0,.45v.85Zm4.77,19.12a29.32,29.32,0,0,1,.9-6.82,25.58,25.58,0,0,1,2.81-7,17.12,17.12,0,0,1,5.46-6,12.76,12.76,0,0,1,7-2h0a12.66,12.66,0,0,1,5,1,13.14,13.14,0,0,1,4.11,2.73,22.21,22.21,0,0,1,3.56,4.63,23.1,23.1,0,0,1,2,4.45,33.52,33.52,0,0,1,1.12,4.34,25.71,25.71,0,0,1,.45,4.67,11.78,11.78,0,0,1-1.05,5.26,3.06,3.06,0,0,1-2.77,1.9H75.59a3.1,3.1,0,0,1-2.81-1.91A11.43,11.43,0,0,1,71.77,113.79Zm2.48.58a13.19,13.19,0,0,0,.23,2.61,5.32,5.32,0,0,0,.5,1.56q.27.45.51.45h25.1q.21,0,.48-.45a5.47,5.47,0,0,0,.48-1.56,13.63,13.63,0,0,0,.21-2.57,24.49,24.49,0,0,0-.79-6.17,24.25,24.25,0,0,0-2.58-6.44,18.76,18.76,0,0,0-1.67-2.39,16,16,0,0,0-2.18-2.15,10,10,0,0,0-2.95-1.66A10.29,10.29,0,0,0,88,95h0a10.48,10.48,0,0,0-3.55.6,9.74,9.74,0,0,0-2.93,1.64,16.2,16.2,0,0,0-2.17,2.13,16.53,16.53,0,0,0-1.65,2.38,24.18,24.18,0,0,0-2.59,6.41A26.14,26.14,0,0,0,74.25,114.37Zm8.28-.35a7.72,7.72,0,1,1,5.5,2.29A7.45,7.45,0,0,1,82.53,114Zm.33-5.5a5,5,0,0,0,1.51,3.66,5.13,5.13,0,0,0,7.31,0,5.18,5.18,0,1,0-8.82-3.66Z"/></svg>