<svg id="Layer_1" data-name="Layer 1" xmlns="http://www.w3.org/2000/svg" viewBox="0 0 150 150"><defs><style>.cls-1{fill:#fff;}</style></defs><title>1clrData-Depot</title><path class="cls-1" d="M119,92a21.24,21.24,0,0,0,4.55-13.59A20.75,20.75,0,0,0,120.23,67a18.89,18.89,0,0,0-8.67-7.4,24.57,24.57,0,0,0-6.8-17,21.46,21.46,0,0,0-31-.78,25,25,0,0,0-7.49,15.51,12.15,12.15,0,0,0-15.9,1.95,14.07,14.07,0,0,0-3.75,9.91,9.27,9.27,0,0,0,.11,1.67,13.33,13.33,0,0,0-6.48-1.67,12.85,12.85,0,0,0-9.77,4.35,15.89,15.89,0,0,0-.64,20.41,13.06,13.06,0,0,0,8.43,4.94,9,9,0,0,0,1.66.21H65v6H39.89a22.71,22.71,0,0,1-2.62-.21,18.68,18.68,0,0,1-12.05-7.14,21.67,21.67,0,0,1,1-28.32A18.49,18.49,0,0,1,40.2,63.16a4.6,4.6,0,0,1,1.23.11,19.65,19.65,0,0,1,6.77-10.15,17.58,17.58,0,0,1,11.21-3.92A23.23,23.23,0,0,1,62,49.3,29.85,29.85,0,0,1,72.48,35a27.1,27.1,0,0,1,27.3-3.18A28,28,0,0,1,109,38.45a30.12,30.12,0,0,1,8.24,17.41,25.94,25.94,0,0,1,8.93,9.59,26.65,26.65,0,0,1,3.28,13,27,27,0,0,1-5.78,17.29A13.08,13.08,0,0,1,119,99Z"/><path class="cls-1" d="M68,119.26V76.74A1.73,1.73,0,0,1,69.74,75h34a1.68,1.68,0,0,1,1.24.44l10.41,9.84a1.6,1.6,0,0,1,.57,1.3v32.68a1.73,1.73,0,0,1-1.74,1.74H69.74A1.73,1.73,0,0,1,68,119.26ZM72,117h41V86.82L103.56,78H99V92H79V78H72ZM89,88h6V78H89Z"/></svg>