<svg id="Layer_1" data-name="Layer 1" xmlns="http://www.w3.org/2000/svg" viewBox="0 0 150 150"><defs><style>.cls-1{fill:#fff;}</style></defs><title>1clrHire</title><path class="cls-1" d="M46.51,114.1V90a22.64,22.64,0,0,1,7-15.61,22.87,22.87,0,0,1,15.76-6.75H80.88A23.57,23.57,0,0,1,100.09,79a22.76,22.76,0,0,1,3.3,11V91.2q0,2.76,0,2.78s0-.91,0-2.78v22.9a5.64,5.64,0,0,1-1.75,4.21,5.82,5.82,0,0,1-4.21,1.7H52.47a5.8,5.8,0,0,1-4.24-1.7A5.67,5.67,0,0,1,46.51,114.1ZM52,105.24V114a.44.44,0,0,0,.49.49H97.53A.44.44,0,0,0,98,114l-.1-22.87v-1a17.39,17.39,0,0,0-5.15-11.71A17.78,17.78,0,0,0,81.18,73l-4,5.27,4.33,26.1L75,111.78l-6.5-7.39,4.33-26.1-4-5.27a17.74,17.74,0,0,0-11.94,5.75A17.36,17.36,0,0,0,52,91.08v14.17Zm5.71-58A17.29,17.29,0,0,1,75,30,17.29,17.29,0,0,1,92.31,47.25,17.3,17.3,0,0,1,75,64.56,17.3,17.3,0,0,1,57.69,47.25Zm5.47,0a11.84,11.84,0,0,0,20.21,8.38,11.76,11.76,0,0,0,0-16.68,11.86,11.86,0,0,0-20.21,8.3ZM68.23,73h0Z"/></svg>