<svg id="Layer_1" data-name="Layer 1" xmlns="http://www.w3.org/2000/svg" viewBox="0 0 150 150"><defs><style>.cls-1{fill:#fff;}</style></defs><title>1clrREU</title><path class="cls-1" d="M132.07,56.72,75.5,74.5a2.55,2.55,0,0,1-1,0L41.57,64.09c-2.88,2.27-4.9,7.83-5.3,14.65a6.3,6.3,0,0,1,3.18,5.5,6.43,6.43,0,0,1-2.93,5.4l2.93,21.87a1.66,1.66,0,0,1-.4,1.26,1.61,1.61,0,0,1-1.21.56h-9.7a1.61,1.61,0,0,1-1.21-.56,1.66,1.66,0,0,1-.4-1.26l2.93-21.87a6.43,6.43,0,0,1-2.93-5.4,6.5,6.5,0,0,1,3.28-5.61c.3-5.91,1.82-12.27,4.95-16.67L17.93,56.72a1.66,1.66,0,0,1,0-3.13L74.5,35.81a2.55,2.55,0,0,1,1,0l56.57,17.78a1.66,1.66,0,0,1,0,3.13ZM107.32,87.93c.4,7.12-14.49,12.93-32.32,12.93S42.27,95.05,42.68,87.93l.91-16,29,9.14a8.49,8.49,0,0,0,4.85,0l29-9.14Z"/></svg>