<svg id="Layer_1" data-name="Layer 1" xmlns="http://www.w3.org/2000/svg" viewBox="0 0 150 150"><defs><style>.cls-1{fill:#fff;}</style></defs><title>1clrSimCenter</title><path class="cls-1" d="M28,61.33h82V46.84a.5.5,0,0,0-.5-.5H28.56c-.37,0-.56.17-.56.51Zm82,7v-1H76V69a1.56,1.56,0,0,1-.22.83,2.89,2.89,0,0,1-2.53,1.51H64.7a2.79,2.79,0,0,1-2.5-1.54A1.61,1.61,0,0,1,62,69V67.33H28v40.5a.48.48,0,0,0,.18.32.53.53,0,0,0,.38.17H75v6H29.05a6,6,0,0,1-6.05-6.1V47.43a6,6,0,0,1,6.05-6.1H52V34a2.54,2.54,0,0,1,.84-1.91,2.8,2.8,0,0,1,2-.8H84.21a2.72,2.72,0,0,1,2,.8A2.58,2.58,0,0,1,87,34v7.29h22.47a6.5,6.5,0,0,1,5.3,2.54A5.9,5.9,0,0,1,116,47.59V68.33Zm-53-27H81v-5H57Z"/><path class="cls-1" d="M117.25,95.79a12.29,12.29,0,0,1-7.21-.84q-.17.2-10.36,11.18T89.34,117.27a5.75,5.75,0,0,1-8.39.26l-.95-.95a5.9,5.9,0,0,1-1.7-4.24,5.83,5.83,0,0,1,1.94-4.15q.4-.34,22.3-20.7a12.65,12.65,0,0,1-.79-7.23A11.71,11.71,0,0,1,105.05,74a11.59,11.59,0,0,1,6.4-3.28,12.7,12.7,0,0,1,7.37.93,1.63,1.63,0,0,1,.95,1.17,1.38,1.38,0,0,1-.49,1.4l-6.9,6.93,4,4,6.93-6.93a1.31,1.31,0,0,1,1.4-.46,1.63,1.63,0,0,1,1.17.95,12.7,12.7,0,0,1,.93,7.37,11.58,11.58,0,0,1-3.28,6.4A11.7,11.7,0,0,1,117.25,95.79Zm.3-7.29a1.66,1.66,0,0,1-2.23,0L109,82.24A1.52,1.52,0,0,1,109,80l6.15-6.15a9.24,9.24,0,0,0-4.31.21,8.12,8.12,0,0,0-3.59,2.19,8.64,8.64,0,0,0-2.48,5.07,9.62,9.62,0,0,0,1,5.84,1.47,1.47,0,0,1-.29,1.86L82.37,110.55a2.91,2.91,0,0,0-.89,1.86,2.43,2.43,0,0,0,.83,1.89l.95.95a2.38,2.38,0,0,0,1.86.8,2.9,2.9,0,0,0,1.89-.86L108.39,92a1.56,1.56,0,0,1,.89-.52,1.59,1.59,0,0,1,1.06.14,9.73,9.73,0,0,0,5.83,1.13,8.47,8.47,0,0,0,5.14-2.48,8.11,8.11,0,0,0,2.19-3.59,9.21,9.21,0,0,0,.21-4.31Z"/></svg>