<svg id="Layer_1" data-name="Layer 1" xmlns="http://www.w3.org/2000/svg" viewBox="0 0 150 150"><defs><style>.cls-1{fill:#fff;}</style></defs><title>1clrFAQ</title><path class="cls-1" d="M32,102.16V61.59a6.11,6.11,0,0,1,1.79-4.42,5.89,5.89,0,0,1,4.39-1.83H94.83a5.89,5.89,0,0,1,4.39,1.83A6.11,6.11,0,0,1,101,61.59v40.57a6,6,0,0,1-1.15,3.63,6.05,6.05,0,0,1-5,2.54H83V119L63.75,108.33H38.17A6.1,6.1,0,0,1,32,102.16Zm6-.33a.51.51,0,0,0,.51.51H65l1.27.66L77,109.05v-6.72H94.49a.51.51,0,0,0,.51-.51V61q0-.66-.5-.67h-56c-.34,0-.5.22-.5.67Zm9.51-23.49a2.74,2.74,0,0,1-1.66-.52,3.06,3.06,0,0,1,0-5,2.75,2.75,0,0,1,1.67-.52h37a2.76,2.76,0,0,1,1.67.52,3.06,3.06,0,0,1,0,5,2.76,2.76,0,0,1-1.67.52Zm1.49-29V37.46a5.81,5.81,0,0,1,1.83-4.36,6.16,6.16,0,0,1,4.43-1.76h56.51a6.12,6.12,0,0,1,4.4,1.76A5.81,5.81,0,0,1,118,37.45V78.17a6.15,6.15,0,0,1-6.2,6.17H104v-6h8.49a.51.51,0,0,0,.51-.51v-40a.51.51,0,0,0-.51-.51h-57a.51.51,0,0,0-.51.51V49.33Zm11.19,41a2.86,2.86,0,0,1-.79-1.77,3,3,0,0,1,3-3.27H84.06a2.71,2.71,0,0,1,1.68.55A3,3,0,0,1,87,88.36a3,3,0,0,1-3,3H62.42A3,3,0,0,1,60.19,90.37Z"/></svg>