<svg id="Layer_1" data-name="Layer 1" xmlns="http://www.w3.org/2000/svg" viewBox="0 0 256 256"><defs><style>.cls-1{isolation:isolate;}.cls-2{fill:#337ab7;}</style></defs><g class="cls-1"><path class="cls-2" d="M251.38,255.21a11.65,11.65,0,0,1-2.77.79H7.39a7.1,7.1,0,0,1-2.64-.53,6.82,6.82,0,0,1-2.38-1.59,11.26,11.26,0,0,1-1.59-2.51,6.66,6.66,0,0,1-.53-2.78V7.38a7.15,7.15,0,0,1,2.12-5A6.93,6.93,0,0,1,4.75.77,7.1,7.1,0,0,1,7.39.24,7.81,7.81,0,0,1,10.3.77a7,7,0,0,1,2.38,1.58,7.15,7.15,0,0,1,2.12,5V241.19H248.61a7.1,7.1,0,0,1,2.64.53,6.91,6.91,0,0,1,2.38,1.59,7.06,7.06,0,0,1,1.59,2.38,7.79,7.79,0,0,1,.53,2.9,7.15,7.15,0,0,1-2.12,5A7.6,7.6,0,0,1,251.38,255.21ZM35.69,175.07a7,7,0,0,1-2.11-5.16,7.91,7.91,0,0,1,2.11-5.42L109.22,91a7.66,7.66,0,0,1,10.58,0l38.35,38.61,60-60.3a7.66,7.66,0,0,1,10.58,0,8,8,0,0,1,2.12,5.42,7,7,0,0,1-2.12,5.16l-65.33,65.33a7.93,7.93,0,0,1-5.42,2.11,7,7,0,0,1-5.16-2.11l-38.35-38.35L46,175.07a7.13,7.13,0,0,1-2.38,1.58,7,7,0,0,1-2.65.53,10.63,10.63,0,0,1-2.77-.39A4.85,4.85,0,0,1,35.69,175.07Z"/></g></svg>