<svg id="Layer_1" data-name="Layer 1" xmlns="http://www.w3.org/2000/svg" viewBox="0 0 205.89 206.89"><defs><style>.cls-1{fill:#337ab7;}</style></defs><path class="cls-1" d="M220.77,34a15.18,15.18,0,0,1,5,3.37,15.53,15.53,0,0,1,3.37,4.87,14.14,14.14,0,0,1,1.13,5.62V198.78a14.15,14.15,0,0,1-1.13,5.63,15.53,15.53,0,0,1-3.37,4.87,15.18,15.18,0,0,1-5,3.37,15,15,0,0,1-5.74,1.13H186v26l-46.72-26H39.62a14.74,14.74,0,0,1-5.87-1.13,16.61,16.61,0,0,1-8.25-8.24,14.15,14.15,0,0,1-1.12-5.63V47.86A14.77,14.77,0,0,1,25.5,42a15.57,15.57,0,0,1,3.38-4.87,13.58,13.58,0,0,1,5-3.25,16.84,16.84,0,0,1,5.75-1H215A15,15,0,0,1,220.77,34Zm-4.49,49.85v-36a.85.85,0,0,0-.38-.75,1.58,1.58,0,0,0-.87-.25H39.62a1.59,1.59,0,0,0-.88.25.85.85,0,0,0-.37.75V198.78A1.26,1.26,0,0,0,39.62,200H142.81l3,1.5,21.74,12.25,4.75,2.49V200H215a1.19,1.19,0,0,0,.87-.37,1.54,1.54,0,0,0,.38-1.13Zm-32.36-6.5a10.72,10.72,0,0,1,2.37,1.5,6.63,6.63,0,0,1,1.5,2.25,7.39,7.39,0,0,1,.5,2.75,5.59,5.59,0,0,1-.62,2.49,14.32,14.32,0,0,1-1.38,2.25,10.72,10.72,0,0,1-2.37,1.5,6.33,6.33,0,0,1-2.63.5H73.35a6.56,6.56,0,0,1-2.5-.5,6.63,6.63,0,0,1-2.25-1.5,6.77,6.77,0,0,1-2-4.74,7.39,7.39,0,0,1,.5-2.75,6.93,6.93,0,0,1,1.5-2.25,6.63,6.63,0,0,1,2.25-1.5,6.75,6.75,0,0,1,2.5-.5H181.29A6.49,6.49,0,0,1,183.92,77.35Zm0,31a11.52,11.52,0,0,1,2.37,1.5,6.63,6.63,0,0,1,1.5,2.25,7.43,7.43,0,0,1,.5,2.75,5.63,5.63,0,0,1-.62,2.5,15.31,15.31,0,0,1-1.38,2.25,11.52,11.52,0,0,1-2.37,1.5,6.49,6.49,0,0,1-2.63.5H95.59a7.39,7.39,0,0,1-2.75-.5,6.93,6.93,0,0,1-2.25-1.5,6.63,6.63,0,0,1-1.5-2.25,6.75,6.75,0,0,1-.5-2.5,7.43,7.43,0,0,1,.5-2.75,6.63,6.63,0,0,1,1.5-2.25,6.93,6.93,0,0,1,2.25-1.5,7.39,7.39,0,0,1,2.75-.5h85.7A6.49,6.49,0,0,1,183.92,108.33Zm0,30.74a7,7,0,0,1,2.12,1.5,6.49,6.49,0,0,1,1.5,2.24,6.79,6.79,0,0,1,.5,2.5,7.39,7.39,0,0,1-.5,2.75,6.44,6.44,0,0,1-1.5,2.25,6.63,6.63,0,0,1-2.25,1.5,6.71,6.71,0,0,1-2.5.5h-50a7.39,7.39,0,0,1-2.75-.5,6.63,6.63,0,0,1-2.25-1.5,6.73,6.73,0,0,1-1.5-2.25,7.39,7.39,0,0,1-.5-2.75,6.72,6.72,0,0,1,2-4.74,6.63,6.63,0,0,1,2.25-1.5,7.2,7.2,0,0,1,2.75-.5h50A6.33,6.33,0,0,1,183.92,139.07Z" transform="translate(-24.38 -32.87)"/></svg>