<?xml version="1.0" encoding="utf-8"?>
<!-- Generator: Adobe Illustrator 21.1.0, SVG Export Plug-In . SVG Version: 6.00 Build 0)  -->
<svg version="1.1" id="Layer_1" xmlns="http://www.w3.org/2000/svg" xmlns:xlink="http://www.w3.org/1999/xlink" x="0px" y="0px"
	 viewBox="0 0 249 123" style="enable-background:new 0 0 249 123;" xml:space="preserve">
<style type="text/css">
	.st0{fill:#1568C9;}
	.st1{fill:#D04348;}
	.st2{fill:#2EA89A;}
</style>
<g>
	<path class="st0" d="M65.5,0h-52C6.1,0,0,6.1,0,13.5v8C0,28.9,6.1,35,13.5,35h52C72.9,35,79,28.9,79,21.5v-8C79,6.1,72.9,0,65.5,0z
		 M11,13.5c0-1.4,1.1-2.5,2.5-2.5h52c1.4,0,2.5,1.1,2.5,2.5v8c0,1.4-1.1,2.5-2.5,2.5h-52c-1.4,0-2.5-1.1-2.5-2.5V13.5z"/>
	<path class="st0" d="M65.5,44h-52C6.1,44,0,50.1,0,57.5v8C0,72.9,6.1,79,13.5,79h52C72.9,79,79,72.9,79,65.5v-8
		C79,50.1,72.9,44,65.5,44z M11,57.5c0-1.4,1.1-2.5,2.5-2.5h52c1.4,0,2.5,1.1,2.5,2.5v8c0,1.4-1.1,2.5-2.5,2.5h-52
		c-1.4,0-2.5-1.1-2.5-2.5V57.5z"/>
	<path class="st0" d="M65.5,88h-52C6.1,88,0,94.1,0,101.5v8c0,7.4,6.1,13.5,13.5,13.5h52c7.4,0,13.5-6.1,13.5-13.5v-8
		C79,94.1,72.9,88,65.5,88z M11,101.5c0-1.4,1.1-2.5,2.5-2.5h52c1.4,0,2.5,1.1,2.5,2.5v8c0,1.4-1.1,2.5-2.5,2.5h-52
		c-1.4,0-2.5-1.1-2.5-2.5V101.5z"/>
</g>
<g>
	<path class="st1" d="M235.5,0h-52C176.1,0,170,6.1,170,13.5v8c0,7.4,6.1,13.5,13.5,13.5h52c7.4,0,13.5-6.1,13.5-13.5v-8
		C249,6.1,242.9,0,235.5,0z M181,13.5c0-1.4,1.1-2.5,2.5-2.5h52c1.4,0,2.5,1.1,2.5,2.5v8c0,1.4-1.1,2.5-2.5,2.5h-52
		c-1.4,0-2.5-1.1-2.5-2.5V13.5z"/>
	<path class="st1" d="M235.5,44h-52c-7.4,0-13.5,6.1-13.5,13.5v8c0,7.4,6.1,13.5,13.5,13.5h52c7.4,0,13.5-6.1,13.5-13.5v-8
		C249,50.1,242.9,44,235.5,44z M181,57.5c0-1.4,1.1-2.5,2.5-2.5h52c1.4,0,2.5,1.1,2.5,2.5v8c0,1.4-1.1,2.5-2.5,2.5h-52
		c-1.4,0-2.5-1.1-2.5-2.5V57.5z"/>
	<path class="st1" d="M235.5,88h-52c-7.4,0-13.5,6.1-13.5,13.5v8c0,7.4,6.1,13.5,13.5,13.5h52c7.4,0,13.5-6.1,13.5-13.5v-8
		C249,94.1,242.9,88,235.5,88z M181,101.5c0-1.4,1.1-2.5,2.5-2.5h52c1.4,0,2.5,1.1,2.5,2.5v8c0,1.4-1.1,2.5-2.5,2.5h-52
		c-1.4,0-2.5-1.1-2.5-2.5V101.5z"/>
</g>
<g>
	<path class="st2" d="M150.5,44h-52C91.1,44,85,50.1,85,57.5v8C85,72.9,91.1,79,98.5,79h52c7.4,0,13.5-6.1,13.5-13.5v-8
		C164,50.1,157.9,44,150.5,44z M153,65.5c0,1.4-1.1,2.5-2.5,2.5h-52c-1.4,0-2.5-1.1-2.5-2.5v-8c0-1.4,1.1-2.5,2.5-2.5h52
		c1.4,0,2.5,1.1,2.5,2.5V65.5z"/>
	<path class="st2" d="M150.5,0h-52C91.1,0,85,6.1,85,13.5v8C85,28.9,91.1,35,98.5,35h52c7.4,0,13.5-6.1,13.5-13.5v-8
		C164,6.1,157.9,0,150.5,0z M96,13.5c0-1.4,1.1-2.5,2.5-2.5h52c1.4,0,2.5,1.1,2.5,2.5v8c0,1.4-1.1,2.5-2.5,2.5h-52
		c-1.4,0-2.5-1.1-2.5-2.5V13.5z"/>
	<path class="st2" d="M150.5,88h-52C91.1,88,85,94.1,85,101.5v8c0,7.4,6.1,13.5,13.5,13.5h52c7.4,0,13.5-6.1,13.5-13.5v-8
		C164,94.1,157.9,88,150.5,88z M96,101.5c0-1.4,1.1-2.5,2.5-2.5h52c1.4,0,2.5,1.1,2.5,2.5v8c0,1.4-1.1,2.5-2.5,2.5h-52
		c-1.4,0-2.5-1.1-2.5-2.5V101.5z"/>
</g>
</svg>
