<?xml version="1.0" encoding="utf-8"?>
<!-- Generator: Adobe Illustrator 16.0.4, SVG Export Plug-In . SVG Version: 6.00 Build 0)  -->
<!DOCTYPE svg PUBLIC "-//W3C//DTD SVG 1.1//EN" "http://www.w3.org/Graphics/SVG/1.1/DTD/svg11.dtd">
<svg version="1.1" id="Layer_1_xA0_Image_1_" xmlns="http://www.w3.org/2000/svg" xmlns:xlink="http://www.w3.org/1999/xlink"
	 x="0px" y="0px" width="283.44px" height="84.667px" viewBox="0 0 283.44 84.667" enable-background="new 0 0 283.44 84.667"
	 xml:space="preserve">
<g>
	<g>
		<polygon fill="#FFFFFF" points="100.398,62.5 84.5,76.468 77.063,59.503 126.587,59.992 116.371,76.498 		"/>
		<path fill="#FFFFFF" d="M77.447,59.757l48.693,0.48l-9.827,15.878l-15.586-13.658l-0.33-0.289l-0.33,0.289L84.591,76.054
			L77.447,59.757 M76.679,59.249l7.729,17.632l15.991-14.048l16.03,14.048l10.604-17.135L76.679,59.249L76.679,59.249z"/>
	</g>
	<polygon fill="#FFFFFF" points="93.164,38.82 74.245,42.334 88.22,60.237 91.095,60.746 113.345,60.746 113.095,55.625 
		126.485,42.343 107.095,38 100.362,17.75 	"/>
	<g>
		<polygon fill="#003366" points="116.811,76.381 111.025,54.948 124.534,42.167 106.807,42.167 100.447,20.653 94.07,42.167 
			76.385,42.167 89.844,54.957 84.025,76.381 63.454,76.381 86.084,8.305 114.646,8.305 137.271,76.381 		"/>
		<path fill="#FFFFFF" d="M114.285,8.805l10.922,32.862h-1.929H107.18l-5.775-19.536l-0.958-3.239l-0.96,3.239l-5.791,19.536h-16.06
			h-2.117L86.444,8.805H114.285 M75.428,41.947l1.521,1.445l12.335,11.722l-5.64,20.768H64.147L75.428,41.947 M125.346,42.087
			l11.231,33.794h-19.383l-5.608-20.774l12.38-11.713L125.346,42.087 M115.006,7.805H85.723L62.761,76.881h21.646L90.405,54.8
			L77.637,42.667h16.806l6.003-20.252l5.987,20.252h16.845L110.464,54.79l5.964,22.091h21.535L115.006,7.805L115.006,7.805z"/>
	</g>
</g>
<g>
	<polygon fill="#003366" points="27.27,76.381 27.27,24.362 5.5,24.362 5.5,8.305 69.383,8.305 69.383,24.362 47.614,24.362 
		47.614,76.381 	"/>
	<path fill="#FFFFFF" d="M68.883,8.805v15.057H48.114h-1v1v51.019H27.77V24.862v-1h-1H6V8.805H68.883 M69.883,7.805H5v17.057h21.77
		v52.019h21.345V24.862h21.769V7.805L69.883,7.805z"/>
</g>
<g display="none">
	<path display="inline" d="M187.451,48.488l16.886,5.104c-1.257,5.246-1.978,9.641-4.679,13.158
		c-2.702,3.519-5.526,6.35-9.531,8.141s-9.069,3.047-15.257,3.047c-7.509,0-13.642-1.091-18.4-3.272s-8.866-6.019-12.321-11.513
		c-3.456-5.493-5.184-12.525-5.184-21.096c0-11.427,3.039-20.208,9.118-26.346c6.078-6.137,14.677-9.206,25.798-9.206
		c8.7,0,15.541,1.76,20.52,5.277c4.979,3.519,8.678,8.922,11.097,16.209l-18.848,4.194c-0.659-2.104-1.351-3.644-2.073-4.618
		c-1.194-1.633-2.654-2.89-4.382-3.77c-1.728-0.879-3.66-1.319-5.796-1.319c-4.838,0-8.545,1.946-11.12,5.836
		c-1.948,2.887-2.921,7.421-2.921,13.601c0,7.656,1.161,12.904,3.486,15.743c2.324,2.84,5.591,4.259,9.801,4.259
		c4.083,0,7.17-1.146,9.259-3.439S186.507,52.854,187.451,48.488z"/>
</g>
<path d="M187.47,41.843"/>
<g>
	<path fill="#FFFFFF" stroke="#FFFFFF" stroke-miterlimit="10" d="M138.964,42.333c0-7.958,1.757-35.793,34.465-35.793
		s32.708,27.835,32.708,27.835l-19.542-0.042c0,0-0.166-10.042-13.166-10.042s-13.041,10.042-13.041,18.041
		c0,8,0,17.949,13.041,17.949s13.041-9.949,13.041-9.949h19.667c0,0,0.001,27.812-32.708,27.812S138.964,50.292,138.964,42.333z"/>
	<path fill="#CC0033" stroke="#FFFFFF" stroke-width="0.5" stroke-miterlimit="10" d="M138.964,42.333
		c1.818-0.021,19.693,0.042,21.424,0c0,8,0,17.949,13.041,17.949s13.041-9.949,13.041-9.949h19.667c0,0,0.001,27.812-32.708,27.812
		S138.964,50.292,138.964,42.333z"/>
</g>
<g>
	<path fill="#FFFFFF" stroke="#FFFFFF" stroke-miterlimit="10" d="M212.464,42.333c0-7.958,1.757-35.793,34.465-35.793
		s32.708,27.835,32.708,27.835l-19.542-0.042c0,0-0.166-10.042-13.166-10.042s-13.041,10.042-13.041,18.041
		c0,8,0,17.949,13.041,17.949s13.041-9.949,13.041-9.949h19.667c0,0,0.001,27.812-32.708,27.812S212.464,50.292,212.464,42.333z"/>
	<path fill="#CC0033" stroke="#FFFFFF" stroke-width="0.5" stroke-miterlimit="10" d="M212.464,42.333
		c1.818-0.021,19.693,0.042,21.424,0c0,8,0,17.949,13.041,17.949s13.041-9.949,13.041-9.949h19.667c0,0,0.001,27.812-32.708,27.812
		S212.464,50.292,212.464,42.333z"/>
</g>
<rect fill="none" width="283.44" height="84.667"/>
</svg>
