<svg xmlns="http://www.w3.org/2000/svg" viewBox="0 0 283.44 111"><defs><style>.cls-1{fill:none;}</style></defs><title>TACC-formal-Black-1c</title><g id="Layer_1_Image" data-name="Layer 1 Image"><rect class="cls-1" x="-4.78" y="-4" width="290.67" height="119"/><path d="M115.43,74.88l-5-20.09,13.81-12.12H106.43l-6-20.25-6,20.25h-18l14,12.13-5,20.08,15-12Zm1,2"/><path d="M5,7.8H69.88V24.86H48.11v52H26.77v-52H5Z"/><path d="M139,42.33c0-8,1.76-35.79,34.46-35.79s32.71,27.84,32.71,27.84l-19.54,0s-.17-10-13.17-10-13,10-13,18,0,17.95,13,17.95,13-9.95,13-9.95h19.67s0,27.81-32.71,27.81S139,50.29,139,42.33Z"/><path d="M212.46,42.33c0-8,1.76-35.79,34.46-35.79s32.71,27.84,32.71,27.84l-19.54,0s-.17-10-13.17-10-13,10-13,18,0,17.95,13,17.95,13-9.95,13-9.95h19.67s0,27.81-32.71,27.81S212.46,50.29,212.46,42.33Z"/></g><g id="Layer_2" data-name="Layer 2"><polygon points="62.75 76.88 82.02 76.88 86.95 55.83 73.59 44.27 62.75 76.88"/><polygon points="137.99 76.88 118.73 76.88 113.79 55.83 127.15 44.27 137.99 76.88"/><polygon points="75.13 39.63 92.09 39.63 100.34 11.81 108.55 39.61 125.58 39.61 115 7.81 85.7 7.81 75.13 39.63"/><path d="M13.37,90.78v2.09H10.6v10.57H8.05V92.88H5.29V90.78Z"/><path d="M21.54,90.78v2.09H17v3h4.26v2.09H17v3.4h4.7v2.09H14.47V90.78Z"/><path d="M22.47,90.78h2.82l1.63,4.1,1.61-4.1h2.78L28.37,97l3.16,6.4H28.66l-1.83-4.29L25,103.44h-2.8L25.38,97Z"/><path d="M35,90.78h3.16l3.35,12.66H38.83l-.58-2.68H34.88l-.58,2.68H31.64Zm.34,7.89h2.48L36.58,93h0Z"/><path d="M44.44,99.49v.37c0,1.19.34,2,1.68,2a1.46,1.46,0,0,0,1.52-1.56c0-1.15-.58-1.58-2.27-2.16-2.27-.78-3.32-1.72-3.32-3.83,0-2.46,1.51-3.72,3.92-3.72s3.92,1,3.92,3.4v.35H47.45c0-1.19-.41-1.88-1.38-1.88a1.31,1.31,0,0,0-1.45,1.47c0,.78.23,1.26,1.31,1.72l2,.85c1.91.83,2.41,1.81,2.41,3.35,0,2.68-1.63,3.88-4.4,3.88s-4-1.35-4-3.69v-.51Z"/><path d="M58.3,90.78h3.16l3.35,12.66H62.15l-.58-2.68H58.2l-.58,2.68H55Zm.34,7.89h2.48L59.9,93h0Z"/><path d="M65.82,90.78H70c3.55,0,4.18,2.43,4.18,6.15,0,4.49-1,6.51-4.34,6.51h-4Zm2.55,10.78h1.13c1.77,0,2.13-1.12,2.13-4.56,0-2.87-.23-4.34-2.18-4.34H68.38Z"/><path d="M77.77,90.78l1.79,9.36h.05l1.88-9.36h2.64l-2.91,12.66H78L75,90.78Z"/><path d="M86.89,90.78H90l3.35,12.66H90.74l-.58-2.68H86.78l-.58,2.68H83.54Zm.34,7.89h2.48L88.48,93h0Z"/><path d="M97.23,90.78l3.09,8.67h0V90.78h2.34v12.66H99.78l-3.12-8.87h0v8.87H94.28V90.78Z"/><path d="M109.87,95.06c0-1.84-.37-2.64-1.52-2.64s-1.6,1.29-1.6,4.88c0,3.83.53,4.52,1.63,4.52.92,0,1.6-.48,1.6-3.21h2.55c0,2.73-.67,5.09-4,5.09-3.83,0-4.31-2.73-4.31-6.58s.48-6.58,4.31-6.58c3.65,0,3.92,2.68,3.92,4.52Z"/><path d="M121.06,90.78v2.09h-4.52v3h4.26v2.09h-4.26v3.4h4.7v2.09H114V90.78Z"/><path d="M122.64,90.78h4.18c3.55,0,4.18,2.43,4.18,6.15,0,4.49-1,6.51-4.34,6.51h-4Zm2.55,10.78h1.13c1.77,0,2.13-1.12,2.13-4.56,0-2.87-.23-4.34-2.18-4.34h-1.08Z"/><path d="M142.35,95.06c0-1.84-.37-2.64-1.52-2.64s-1.6,1.29-1.6,4.88c0,3.83.53,4.52,1.63,4.52.92,0,1.6-.48,1.6-3.21H145c0,2.73-.67,5.09-4,5.09-3.83,0-4.31-2.73-4.31-6.58s.48-6.58,4.31-6.58c3.65,0,3.92,2.68,3.92,4.52Z"/><path d="M150.51,90.53c3.83,0,4.31,2.73,4.31,6.58s-.48,6.58-4.31,6.58-4.31-2.73-4.31-6.58S146.68,90.53,150.51,90.53Zm0,11.28c1.51,0,1.76-1.29,1.76-4.7s-.25-4.7-1.76-4.7-1.75,1.31-1.75,4.7S149,101.81,150.51,101.81Z"/><path d="M156.38,90.78h3.79L162,99.72h0l1.83-8.94h3.78v12.66h-2.34V93.34h0L163,103.44h-2l-2.25-10.11h0v10.11h-2.34Z"/><path d="M169.45,90.78h4.47c2.59,0,3.48,1.9,3.48,3.79,0,2.62-1.61,3.81-4,3.81H172v5.05h-2.55ZM172,96.51h1.13c1,0,1.7-.6,1.7-1.9s-.5-2-1.77-2H172Z"/><path d="M181,90.78v8.83c0,1.26.3,2.2,1.49,2.2s1.49-.94,1.49-2.2V90.78h2.55v8.83c0,3.23-2,4.08-4,4.08s-4-.69-4-4.08V90.78Z"/><path d="M195.61,90.78v2.09h-2.77v10.57h-2.55V92.88h-2.77V90.78Z"/><path d="M196.83,103.44V90.78h2.55v12.66Z"/><path d="M204.22,90.78l3.09,8.67h0V90.78h2.34v12.66h-2.91l-3.12-8.87h0v8.87h-2.34V90.78Z"/><path d="M217.08,94.54c0-.94-.42-2.13-1.45-2.13-1.24,0-1.74,1.28-1.74,4.43s.28,5,1.76,5a1.86,1.86,0,0,0,1.58-2V98.5h-1.68V96.62h4.13v6.83h-1.88v-1.17h0a2.85,2.85,0,0,1-2.66,1.42c-3.14,0-3.76-2.34-3.76-6.72s1-6.44,4.25-6.44c2.8,0,3.94,1.44,3.94,4Z"/><path d="M231,95.06c0-1.84-.37-2.64-1.52-2.64s-1.6,1.29-1.6,4.88c0,3.83.53,4.52,1.63,4.52.92,0,1.6-.48,1.6-3.21h2.55c0,2.73-.67,5.09-4,5.09-3.83,0-4.31-2.73-4.31-6.58s.48-6.58,4.31-6.58c3.65,0,3.92,2.68,3.92,4.52Z"/><path d="M242.17,90.78v2.09h-4.52v3h4.26v2.09h-4.26v3.4h4.7v2.09H235.1V90.78Z"/><path d="M246.57,90.78l3.08,8.67h0V90.78H252v12.66h-2.91L246,94.58h0v8.87h-2.34V90.78Z"/><path d="M261.22,90.78v2.09h-2.77v10.57H255.9V92.88h-2.77V90.78Z"/><path d="M269.39,90.78v2.09h-4.52v3h4.26v2.09h-4.26v3.4h4.7v2.09h-7.25V90.78Z"/><path d="M270.84,90.78h4.72c2.09,0,3.37,1.1,3.37,3.26,0,1.68-.67,2.82-2.11,3.12v0c1.74.23,2,1.19,2,3.87,0,1.33.09,2,.57,2.27v.11h-2.77a2.47,2.47,0,0,1-.32-1.33l-.07-2.43c0-1-.48-1.6-1.51-1.6H273.4v5.35h-2.55Zm2.55,5.53h1.06a1.67,1.67,0,0,0,1.92-1.9,1.57,1.57,0,0,0-1.77-1.75H273.4Z"/></g></svg>