<svg xmlns="http://www.w3.org/2000/svg" xmlns:xlink="http://www.w3.org/1999/xlink" version="1.1" x="0" y="0" width="283.44" height="84.67" viewBox="0 0 283.44 84.67" enable-background="new 0 0 283.44 84.667" xml:space="preserve">
  <g id="Layer_1_xA0_Image_1_">
    <rect x="0" fill="none" width="283.44" height="84.67"/>
    <rect x="-4.78" y="-4" fill="none" width="290.67" height="93.33"/>
    <g display="none">
      <path display="inline" d="M187.45 48.49l16.89 5.1c-1.26 5.25-1.98 9.64-4.68 13.16 -2.7 3.52-5.53 6.35-9.53 8.14s-9.07 3.05-15.26 3.05c-7.51 0-13.64-1.09-18.4-3.27s-8.87-6.02-12.32-11.51c-3.46-5.49-5.18-12.52-5.18-21.1 0-11.43 3.04-20.21 9.12-26.35 6.08-6.14 14.68-9.21 25.8-9.21 8.7 0 15.54 1.76 20.52 5.28 4.98 3.52 8.68 8.92 11.1 16.21l-18.85 4.19c-0.66-2.1-1.35-3.64-2.07-4.62 -1.19-1.63-2.65-2.89-4.38-3.77 -1.73-0.88-3.66-1.32-5.8-1.32 -4.84 0-8.54 1.95-11.12 5.84 -1.95 2.89-2.92 7.42-2.92 13.6 0 7.66 1.16 12.9 3.49 15.74 2.32 2.84 5.59 4.26 9.8 4.26 4.08 0 7.17-1.15 9.26-3.44S186.51 52.85 187.45 48.49z"/>
    </g>
    <polygon fill="#003366" points="27.27 76.38 27.27 24.36 5.5 24.36 5.5 8.31 69.38 8.31 69.38 24.36 47.61 24.36 47.61 76.38 "/>
    <path fill="#020202" d="M68.88 8.81v15.06H48.11h-1v1 51.02H27.77V24.86v-1h-1H6V8.81H68.88M69.88 7.81H5v17.06h21.77v52.02h21.35V24.86h21.77V7.81L69.88 7.81z"/>
    <path d="M187.47 41.84"/>
    <path fill="#FFFFFF" d="M173.43 77.65c-30.65 0-33.97-24.69-33.97-35.31 0-10.61 3.31-35.29 33.97-35.29 29.8 0 32.03 23 32.2 26.83l-18.57-0.04c-0.25-2.08-1.97-10.04-13.62-10.04 -13.54 0-13.54 10.72-13.54 18.54 0 7.79 0 18.45 13.54 18.45 11.67 0 13.28-7.87 13.51-9.95h18.69C205.46 54.66 203.23 77.65 173.43 77.65z"/>
    <path fill="#020202" d="M173.43 7.54c13.15 0 22.47 4.49 27.72 13.35 3.04 5.14 3.77 10.35 3.94 12.48l-17.6-0.04c-0.45-2.7-2.72-10.04-14.06-10.04 -14.04 0-14.04 11.01-14.04 19.04 0 8 0 18.95 14.04 18.95 11.35 0 13.53-7.25 13.94-9.95h17.71c-0.17 2.13-0.9 7.34-3.94 12.47 -5.24 8.85-14.57 13.34-27.72 13.34 -30.2 0-33.47-24.35-33.47-34.81C139.96 31.87 143.23 7.54 173.43 7.54M173.43 6.54c-32.71 0-34.47 27.84-34.47 35.79 0 7.96 1.76 35.81 34.47 35.81s32.71-27.81 32.71-27.81H186.47c0 0 0 9.95-13.04 9.95s-13.04-9.95-13.04-17.95c0-8 0.04-18.04 13.04-18.04s13.17 10.04 13.17 10.04l19.54 0.04C206.14 34.38 206.14 6.54 173.43 6.54L173.43 6.54z"/>
    <path fill="#FFFFFF" d="M246.93 77.65c-30.65 0-33.97-24.69-33.97-35.31 0-10.61 3.31-35.29 33.97-35.29 29.8 0 32.03 23 32.2 26.83l-18.57-0.04c-0.25-2.08-1.97-10.04-13.62-10.04 -13.54 0-13.54 10.72-13.54 18.54 0 7.79 0 18.45 13.54 18.45 11.67 0 13.28-7.87 13.51-9.95h18.69C278.96 54.66 276.73 77.65 246.93 77.65z"/>
    <path fill="#020202" d="M246.93 7.54c13.15 0 22.47 4.49 27.72 13.35 3.04 5.14 3.77 10.35 3.94 12.48l-17.6-0.04c-0.45-2.7-2.72-10.04-14.06-10.04 -14.04 0-14.04 11.01-14.04 19.04 0 8 0 18.95 14.04 18.95 11.35 0 13.53-7.25 13.94-9.95h17.71c-0.17 2.13-0.9 7.34-3.94 12.47 -5.24 8.85-14.57 13.34-27.72 13.34 -30.2 0-33.47-24.35-33.47-34.81C213.46 31.87 216.73 7.54 246.93 7.54M246.93 6.54c-32.71 0-34.47 27.84-34.47 35.79 0 7.96 1.76 35.81 34.47 35.81s32.71-27.81 32.71-27.81H259.97c0 0 0 9.95-13.04 9.95s-13.04-9.95-13.04-17.95c0-8 0.04-18.04 13.04-18.04s13.17 10.04 13.17 10.04l19.54 0.04C279.64 34.38 279.64 6.54 246.93 6.54L246.93 6.54z"/>
    <path fill="#FFFFFF" stroke="#EF1856" stroke-width="0.5" stroke-miterlimit="10" d="M116.43 76.88"/>
    <polygon fill="#003366" points="116 76.39 100.41 62.2 84.86 76.39 63.44 76.39 86.07 8.31 114.64 8.31 137.26 76.39 "/>
    <path fill="#020202" d="M114.28 8.81l22.29 67.08h-20.38l-15.11-13.75 -0.67-0.61 -0.67 0.62L84.67 75.89H64.14L86.44 8.81H114.28M115 7.81H85.71L62.75 76.89h22.3l15.35-14.01 15.4 14.01h22.15L115 7.81 115 7.81z"/>
    <path fill="#CC0033" d="M246.93 77.65c-30.18 0-33.86-23.94-33.96-34.81h20.42c0.01 7.73 0.29 17.95 13.54 17.95 11.67 0 13.28-7.87 13.51-9.95h18.69C278.96 54.66 276.73 77.65 246.93 77.65z"/>
    <path fill="#020202" d="M232.89 43.33c0.02 7.88 0.58 17.95 14.04 17.95 11.35 0 13.53-7.25 13.94-9.95h17.71c-0.17 2.13-0.9 7.34-3.94 12.47 -5.24 8.85-14.57 13.34-27.72 13.34 -29.28 0-33.24-22.88-33.45-33.81H232.89M233.89 42.33h-21.42c0 7.96 1.76 35.81 34.47 35.81s32.71-27.81 32.71-27.81H259.97c0 0 0 9.95-13.04 9.95S233.89 50.33 233.89 42.33L233.89 42.33z"/>
    <polygon fill="#FFFFFF" points="100.4 62.16 85.93 75.4 90.96 54.62 77.75 43.17 94.82 43.17 100.45 24.18 106.06 43.17 122.95 43.17 109.91 54.61 114.93 75.41 "/>
    <path fill="#020202" d="M100.45 25.94l5.03 17.01 0.21 0.72h0.75 15.19l-11.82 10.37 -0.45 0.4 0.14 0.59 4.57 18.91 -12.99-11.84 -0.67-0.61 -0.67 0.62L86.8 73.92l4.58-18.89 0.14-0.59 -0.46-0.4L79.09 43.67h15.35 0.75l0.21-0.72L100.45 25.94M100.45 22.42l-6 20.25H76.41L90.41 54.8l-5.35 22.08 15.35-14.04 15.41 14.04 -5.34-22.09 13.81-12.12h-17.84L100.45 22.42 100.45 22.42z"/>
    <path fill="#CC0033" d="M173.43 77.65c-30.18 0-33.86-23.94-33.96-34.81h20.42c0.01 7.73 0.29 17.95 13.54 17.95 11.67 0 13.28-7.87 13.51-9.95h18.69C205.46 54.66 203.23 77.65 173.43 77.65z"/>
    <path fill="#020202" d="M159.39 43.33c0.02 7.88 0.58 17.95 14.04 17.95 11.35 0 13.53-7.25 13.94-9.95h17.71c-0.17 2.13-0.9 7.34-3.94 12.47 -5.24 8.85-14.57 13.34-27.72 13.34 -29.28 0-33.24-22.88-33.45-33.81H159.39M160.39 42.33h-21.42c0 7.96 1.76 35.81 34.47 35.81s32.71-27.81 32.71-27.81H186.47c0 0 0 9.95-13.04 9.95S160.39 50.33 160.39 42.33L160.39 42.33z"/>
    <polygon fill="#FFFFFF" points="139.97 41.58 139.99 43.34 159.38 43.34 159.38 40.73 "/>
    <polygon fill="#FFFFFF" points="213.47 41.59 213.49 43.34 232.88 43.34 232.88 40.78 "/>
  </g>
  <g id="Layer_2"/>
</svg>
